%TF.GenerationSoftware,KiCad,Pcbnew,8.0.3*%
%TF.CreationDate,2024-06-23T18:33:08+02:00*%
%TF.ProjectId,MAX17262-breakout,4d415831-3732-4363-922d-627265616b6f,rev?*%
%TF.SameCoordinates,Original*%
%TF.FileFunction,Copper,L1,Top*%
%TF.FilePolarity,Positive*%
%FSLAX46Y46*%
G04 Gerber Fmt 4.6, Leading zero omitted, Abs format (unit mm)*
G04 Created by KiCad (PCBNEW 8.0.3) date 2024-06-23 18:33:08*
%MOMM*%
%LPD*%
G01*
G04 APERTURE LIST*
G04 Aperture macros list*
%AMRoundRect*
0 Rectangle with rounded corners*
0 $1 Rounding radius*
0 $2 $3 $4 $5 $6 $7 $8 $9 X,Y pos of 4 corners*
0 Add a 4 corners polygon primitive as box body*
4,1,4,$2,$3,$4,$5,$6,$7,$8,$9,$2,$3,0*
0 Add four circle primitives for the rounded corners*
1,1,$1+$1,$2,$3*
1,1,$1+$1,$4,$5*
1,1,$1+$1,$6,$7*
1,1,$1+$1,$8,$9*
0 Add four rect primitives between the rounded corners*
20,1,$1+$1,$2,$3,$4,$5,0*
20,1,$1+$1,$4,$5,$6,$7,0*
20,1,$1+$1,$6,$7,$8,$9,0*
20,1,$1+$1,$8,$9,$2,$3,0*%
G04 Aperture macros list end*
%TA.AperFunction,Conductor*%
%ADD10C,0.010000*%
%TD*%
%TA.AperFunction,EtchedComponent*%
%ADD11C,0.000000*%
%TD*%
%TA.AperFunction,SMDPad,CuDef*%
%ADD12C,0.216000*%
%TD*%
%TA.AperFunction,ComponentPad*%
%ADD13R,1.700000X1.700000*%
%TD*%
%TA.AperFunction,ComponentPad*%
%ADD14O,1.700000X1.700000*%
%TD*%
%TA.AperFunction,SMDPad,CuDef*%
%ADD15RoundRect,0.250000X0.750000X-0.250000X0.750000X0.250000X-0.750000X0.250000X-0.750000X-0.250000X0*%
%TD*%
%TA.AperFunction,SMDPad,CuDef*%
%ADD16RoundRect,0.237500X-0.250000X-0.237500X0.250000X-0.237500X0.250000X0.237500X-0.250000X0.237500X0*%
%TD*%
%TA.AperFunction,SMDPad,CuDef*%
%ADD17RoundRect,0.237500X-0.300000X-0.237500X0.300000X-0.237500X0.300000X0.237500X-0.300000X0.237500X0*%
%TD*%
%TA.AperFunction,SMDPad,CuDef*%
%ADD18R,1.600000X0.800000*%
%TD*%
%TA.AperFunction,SMDPad,CuDef*%
%ADD19R,3.000000X2.100000*%
%TD*%
%TA.AperFunction,SMDPad,CuDef*%
%ADD20C,0.500000*%
%TD*%
%TA.AperFunction,SMDPad,CuDef*%
%ADD21RoundRect,0.237500X0.250000X0.237500X-0.250000X0.237500X-0.250000X-0.237500X0.250000X-0.237500X0*%
%TD*%
%TA.AperFunction,SMDPad,CuDef*%
%ADD22RoundRect,0.237500X0.300000X0.237500X-0.300000X0.237500X-0.300000X-0.237500X0.300000X-0.237500X0*%
%TD*%
%TA.AperFunction,ViaPad*%
%ADD23C,0.600000*%
%TD*%
%TA.AperFunction,Conductor*%
%ADD24C,0.500000*%
%TD*%
%TA.AperFunction,Conductor*%
%ADD25C,0.200000*%
%TD*%
%TA.AperFunction,Conductor*%
%ADD26C,0.220000*%
%TD*%
%TA.AperFunction,Conductor*%
%ADD27C,1.000000*%
%TD*%
%TA.AperFunction,Conductor*%
%ADD28C,0.800000*%
%TD*%
%TA.AperFunction,Conductor*%
%ADD29C,0.127000*%
%TD*%
%TA.AperFunction,Conductor*%
%ADD30C,0.050000*%
%TD*%
%TA.AperFunction,Conductor*%
%ADD31C,0.180000*%
%TD*%
%TA.AperFunction,Conductor*%
%ADD32C,0.600000*%
%TD*%
G04 APERTURE END LIST*
D10*
%TO.N,Net-(IC1-BATT)*%
X82522019Y-89808065D02*
X82377428Y-90295154D01*
X82170542Y-90247376D01*
X81125516Y-89269649D01*
X81907609Y-88878603D01*
X82522019Y-89808065D01*
%TA.AperFunction,Conductor*%
G36*
X82522019Y-89808065D02*
G01*
X82377428Y-90295154D01*
X82170542Y-90247376D01*
X81125516Y-89269649D01*
X81907609Y-88878603D01*
X82522019Y-89808065D01*
G37*
%TD.AperFunction*%
X81125516Y-89269649D02*
X81125438Y-89269689D01*
X81123684Y-89267935D01*
X81125516Y-89269649D01*
%TA.AperFunction,Conductor*%
G36*
X81125516Y-89269649D02*
G01*
X81125438Y-89269689D01*
X81123684Y-89267935D01*
X81125516Y-89269649D01*
G37*
%TD.AperFunction*%
%TO.N,Net-(IC1-SYS)*%
X83938968Y-90991842D02*
X82755990Y-90853986D01*
X82697992Y-90647994D01*
X82853180Y-90598754D01*
X83730871Y-90079310D01*
X83938968Y-90991842D01*
%TA.AperFunction,Conductor*%
G36*
X83938968Y-90991842D02*
G01*
X82755990Y-90853986D01*
X82697992Y-90647994D01*
X82853180Y-90598754D01*
X83730871Y-90079310D01*
X83938968Y-90991842D01*
G37*
%TD.AperFunction*%
D11*
%TA.AperFunction,EtchedComponent*%
%TD*%
%TO.C,NT1*%
G36*
X87250000Y-100000000D02*
G01*
X86750000Y-100000000D01*
X86750000Y-99000000D01*
X87250000Y-99000000D01*
X87250000Y-100000000D01*
G37*
%TD.AperFunction*%
D12*
%TO.P,IC1,A1,TH*%
%TO.N,Net-(IC1-BATT)*%
X81875000Y-90350000D03*
%TO.P,IC1,A2,BATT*%
X82275000Y-90350000D03*
%TO.P,IC1,A3,NC*%
%TO.N,unconnected-(IC1-NC-PadA3)*%
X82675000Y-90350000D03*
%TO.P,IC1,B1,SCL*%
%TO.N,SCL*%
X81875000Y-90750000D03*
%TO.P,IC1,B2,ALRT*%
%TO.N,unconnected-(IC1-NC-PadA3)*%
X82275000Y-90750000D03*
%TO.P,IC1,B3,SYS*%
%TO.N,Net-(IC1-SYS)*%
X82675000Y-90750000D03*
%TO.P,IC1,C1,SDA*%
%TO.N,SDA*%
X81875000Y-91150000D03*
%TO.P,IC1,C2,REG*%
%TO.N,Net-(IC1-REG)*%
X82275000Y-91150000D03*
%TO.P,IC1,C3,GND*%
%TO.N,GND*%
X82675000Y-91150000D03*
%TD*%
D13*
%TO.P,J4,1,Pin_1*%
%TO.N,GND*%
X79960000Y-82000000D03*
D14*
%TO.P,J4,2,Pin_2*%
%TO.N,ALRT*%
X82500000Y-82000000D03*
%TD*%
D15*
%TO.P,J3,1,Pin_1*%
%TO.N,Net-(J1-BAT-)*%
X66500000Y-100500000D03*
%TD*%
D16*
%TO.P,R1,1*%
%TO.N,SDA*%
X96925000Y-87250000D03*
%TO.P,R1,2*%
%TO.N,Net-(J5-3.3v)*%
X98750000Y-87250000D03*
%TD*%
D17*
%TO.P,C1,1*%
%TO.N,Net-(IC1-BATT)*%
X81412500Y-87800000D03*
%TO.P,C1,2*%
%TO.N,GND*%
X83137500Y-87800000D03*
%TD*%
D15*
%TO.P,J2,1,Pin_1*%
%TO.N,Net-(IC1-BATT)*%
X66500000Y-81000000D03*
%TD*%
D18*
%TO.P,J1,1,BAT+*%
%TO.N,Net-(IC1-BATT)*%
X66400000Y-90050000D03*
%TO.P,J1,2,BAT-*%
%TO.N,Net-(J1-BAT-)*%
X66400000Y-91300000D03*
D19*
%TO.P,J1,MP1*%
%TO.N,N/C*%
X63500000Y-87500000D03*
%TO.P,J1,MP2*%
X63500000Y-93850000D03*
%TD*%
D13*
%TO.P,J5,1,SYSPWR*%
%TO.N,Net-(IC1-SYS)*%
X116000000Y-84325000D03*
D14*
%TO.P,J5,2,SDA*%
%TO.N,SDA*%
X116000000Y-86865000D03*
%TO.P,J5,3,3.3v*%
%TO.N,Net-(J5-3.3v)*%
X116000000Y-89405000D03*
%TO.P,J5,4,SCL*%
%TO.N,SCL*%
X116000000Y-91945000D03*
%TO.P,J5,5,ALRT*%
%TO.N,ALRT*%
X116000000Y-94485000D03*
%TO.P,J5,6,SYSGND*%
%TO.N,Net-(J1-BAT-)*%
X116000000Y-97025000D03*
%TD*%
D20*
%TO.P,NT1,1,1*%
%TO.N,GND*%
X87000000Y-99000000D03*
%TO.P,NT1,2,2*%
%TO.N,Net-(J1-BAT-)*%
X87000000Y-100000000D03*
%TD*%
D21*
%TO.P,R2,1*%
%TO.N,Net-(J5-3.3v)*%
X98753242Y-91746195D03*
%TO.P,R2,2*%
%TO.N,SCL*%
X96928242Y-91746195D03*
%TD*%
D22*
%TO.P,C2,1*%
%TO.N,GND*%
X84029613Y-93293801D03*
%TO.P,C2,2*%
%TO.N,Net-(IC1-REG)*%
X82304613Y-93293801D03*
%TD*%
D23*
%TO.N,SDA*%
X95700000Y-85700000D03*
X80000000Y-91500000D03*
%TO.N,SCL*%
X95700000Y-93200000D03*
X80000000Y-90500000D03*
%TO.N,GND*%
X87000000Y-87500000D03*
X88000000Y-93500000D03*
X91500000Y-98000000D03*
X70000000Y-91000000D03*
%TO.N,ALRT*%
X83900000Y-89000000D03*
%TD*%
D24*
%TO.N,SDA*%
X97000000Y-85770000D02*
X95770000Y-85770000D01*
D25*
X96925000Y-86925000D02*
X96925000Y-87250000D01*
D24*
X101365000Y-86960000D02*
X100175000Y-85770000D01*
D25*
X95770000Y-85770000D02*
X95700000Y-85700000D01*
X81875000Y-91150000D02*
X80350000Y-91150000D01*
D24*
X100175000Y-85770000D02*
X97000000Y-85770000D01*
X116000000Y-86960000D02*
X101365000Y-86960000D01*
D25*
X80350000Y-91150000D02*
X80000000Y-91500000D01*
D24*
X95700000Y-85700000D02*
X96925000Y-86925000D01*
D25*
%TO.N,SCL*%
X81875000Y-90750000D02*
X80250000Y-90750000D01*
D24*
X100370000Y-92920000D02*
X97000000Y-92920000D01*
X96928242Y-91971758D02*
X96928242Y-91746195D01*
D25*
X80250000Y-90750000D02*
X80000000Y-90500000D01*
D24*
X101250000Y-92040000D02*
X100370000Y-92920000D01*
X95700000Y-93200000D02*
X96928242Y-91971758D01*
X95980000Y-92920000D02*
X95700000Y-93200000D01*
X97000000Y-92920000D02*
X95980000Y-92920000D01*
X116000000Y-92040000D02*
X101250000Y-92040000D01*
D25*
%TO.N,GND*%
X84043610Y-92518610D02*
X84043610Y-93536572D01*
X82675000Y-91150000D02*
X84043610Y-92518610D01*
D26*
%TO.N,Net-(IC1-BATT)*%
X82275000Y-90350000D02*
X82275000Y-89775000D01*
D27*
X69500000Y-86850000D02*
X70450000Y-87800000D01*
X68675000Y-87675000D02*
X70325000Y-87675000D01*
X70450000Y-87800000D02*
X81412500Y-87800000D01*
X67000000Y-89350000D02*
X66400000Y-89950000D01*
D28*
X67050000Y-89350000D02*
X67000000Y-89350000D01*
D27*
X66500000Y-81000000D02*
X69500000Y-81000000D01*
X68425000Y-87925000D02*
X68675000Y-87675000D01*
X67000000Y-89350000D02*
X68425000Y-87925000D01*
X81412500Y-88862500D02*
X81412500Y-87800000D01*
D25*
X82275000Y-89775000D02*
X81412500Y-88912500D01*
D27*
X70325000Y-87675000D02*
X70450000Y-87800000D01*
X69500000Y-81000000D02*
X69500000Y-86000000D01*
D25*
X81412500Y-88912500D02*
X81412500Y-88862500D01*
X81875000Y-90350000D02*
X82275000Y-90350000D01*
D27*
X68425000Y-87925000D02*
X69500000Y-86850000D01*
X69500000Y-86850000D02*
X69500000Y-86000000D01*
D29*
%TO.N,Net-(IC1-REG)*%
X82275000Y-93492962D02*
X82318610Y-93536572D01*
D25*
X82275000Y-91150000D02*
X82275000Y-93492962D01*
D27*
%TO.N,Net-(IC1-SYS)*%
X94000000Y-81500000D02*
X90000000Y-85500000D01*
D29*
X83250000Y-90750000D02*
X83500000Y-90500000D01*
D27*
X116000000Y-84000000D02*
X114000000Y-82000000D01*
X90000000Y-85500000D02*
X90000000Y-89500000D01*
X105500000Y-81500000D02*
X94000000Y-81500000D01*
X114000000Y-82000000D02*
X113500000Y-81500000D01*
X84500000Y-90500000D02*
X84000000Y-90500000D01*
D26*
X82675000Y-90750000D02*
X83250000Y-90750000D01*
D27*
X89000000Y-90500000D02*
X85500000Y-90500000D01*
X113500000Y-81500000D02*
X105500000Y-81500000D01*
X85500000Y-90500000D02*
X84500000Y-90500000D01*
D29*
X116000000Y-84325000D02*
X116000000Y-84000000D01*
D27*
X90000000Y-89500000D02*
X89000000Y-90500000D01*
D25*
%TO.N,ALRT*%
X83900000Y-89000000D02*
X83525772Y-89374228D01*
D30*
%TO.N,unconnected-(IC1-NC-PadA3)*%
X82275000Y-90750000D02*
X82275000Y-90757786D01*
D31*
X83300000Y-89700000D02*
X83500000Y-89500000D01*
X82675000Y-90325000D02*
X83300000Y-89700000D01*
D30*
X82675000Y-90350000D02*
X82675000Y-90325000D01*
X82674134Y-90350866D02*
X82674735Y-90350866D01*
X82275000Y-90750000D02*
X82674134Y-90350866D01*
D31*
X83500000Y-89500000D02*
X83500000Y-89400000D01*
D25*
%TO.N,Net-(J5-3.3v)*%
X98750000Y-91675000D02*
X98825000Y-91750000D01*
D24*
X98750000Y-89500000D02*
X98750000Y-91675000D01*
X98750000Y-87250000D02*
X98750000Y-89500000D01*
D32*
X116000000Y-89500000D02*
X98750000Y-89500000D01*
D25*
%TO.N,Net-(J1-BAT-)*%
X66400000Y-91300000D02*
X66400000Y-91400000D01*
D27*
X67500000Y-92500000D02*
X66400000Y-91400000D01*
X113700000Y-100500000D02*
X116000000Y-98200000D01*
X69500000Y-100500000D02*
X113700000Y-100500000D01*
X116000000Y-98200000D02*
X116000000Y-97025000D01*
X69500000Y-100500000D02*
X69500000Y-94500000D01*
D28*
X67000000Y-92000000D02*
X66400000Y-91400000D01*
D27*
X67000000Y-92000000D02*
X67500000Y-92500000D01*
X66500000Y-100500000D02*
X69500000Y-100500000D01*
X69500000Y-94500000D02*
X67500000Y-92500000D01*
%TD*%
%TA.AperFunction,Conductor*%
%TO.N,GND*%
G36*
X113101257Y-82520185D02*
G01*
X113121899Y-82536819D01*
X114613181Y-84028101D01*
X114646666Y-84089424D01*
X114649500Y-84115782D01*
X114649501Y-85222870D01*
X114655908Y-85282483D01*
X114706202Y-85417328D01*
X114706206Y-85417335D01*
X114792452Y-85532544D01*
X114792455Y-85532547D01*
X114907664Y-85618793D01*
X114907671Y-85618797D01*
X115039081Y-85667810D01*
X115095015Y-85709681D01*
X115119432Y-85775145D01*
X115104580Y-85843418D01*
X115083430Y-85871673D01*
X114961503Y-85993600D01*
X114847355Y-86156623D01*
X114792778Y-86200248D01*
X114745780Y-86209500D01*
X101727229Y-86209500D01*
X101660190Y-86189815D01*
X101639548Y-86173181D01*
X100653421Y-85187052D01*
X100653414Y-85187046D01*
X100579729Y-85137812D01*
X100579729Y-85137813D01*
X100530491Y-85104913D01*
X100393917Y-85048343D01*
X100393907Y-85048340D01*
X100248920Y-85019500D01*
X100248918Y-85019500D01*
X97073918Y-85019500D01*
X96157323Y-85019500D01*
X96091350Y-85000493D01*
X96049524Y-84974211D01*
X95879254Y-84914631D01*
X95879249Y-84914630D01*
X95700004Y-84894435D01*
X95699996Y-84894435D01*
X95520750Y-84914630D01*
X95520745Y-84914631D01*
X95350476Y-84974211D01*
X95197737Y-85070184D01*
X95070184Y-85197737D01*
X94974211Y-85350476D01*
X94914631Y-85520745D01*
X94914630Y-85520750D01*
X94894435Y-85699996D01*
X94894435Y-85700003D01*
X94914630Y-85879249D01*
X94914631Y-85879254D01*
X94974211Y-86049523D01*
X95041507Y-86156623D01*
X95070184Y-86202262D01*
X95197738Y-86329816D01*
X95312833Y-86402135D01*
X95350483Y-86425792D01*
X95356753Y-86428812D01*
X95355870Y-86430643D01*
X95391940Y-86453308D01*
X95900681Y-86962048D01*
X95934166Y-87023371D01*
X95937000Y-87049729D01*
X95937000Y-87536669D01*
X95937001Y-87536687D01*
X95947325Y-87637752D01*
X96001592Y-87801515D01*
X96001593Y-87801518D01*
X96035895Y-87857129D01*
X96092160Y-87948350D01*
X96214150Y-88070340D01*
X96360984Y-88160908D01*
X96524747Y-88215174D01*
X96625823Y-88225500D01*
X97224176Y-88225499D01*
X97224184Y-88225498D01*
X97224187Y-88225498D01*
X97279530Y-88219844D01*
X97325253Y-88215174D01*
X97489016Y-88160908D01*
X97635850Y-88070340D01*
X97749819Y-87956371D01*
X97811142Y-87922886D01*
X97880834Y-87927870D01*
X97925181Y-87956371D01*
X97963181Y-87994371D01*
X97996666Y-88055694D01*
X97999500Y-88082052D01*
X97999500Y-89195396D01*
X97990062Y-89242844D01*
X97980263Y-89266503D01*
X97980262Y-89266506D01*
X97980260Y-89266511D01*
X97949500Y-89421153D01*
X97949500Y-89578846D01*
X97980261Y-89733489D01*
X97980263Y-89733497D01*
X97990061Y-89757151D01*
X97999500Y-89804604D01*
X97999500Y-90917385D01*
X97979815Y-90984424D01*
X97963181Y-91005066D01*
X97928423Y-91039824D01*
X97867100Y-91073309D01*
X97797408Y-91068325D01*
X97753061Y-91039824D01*
X97639093Y-90925856D01*
X97639092Y-90925855D01*
X97519560Y-90852127D01*
X97492260Y-90835288D01*
X97492255Y-90835286D01*
X97490811Y-90834807D01*
X97328495Y-90781021D01*
X97328493Y-90781020D01*
X97227420Y-90770695D01*
X96629072Y-90770695D01*
X96629054Y-90770696D01*
X96527989Y-90781020D01*
X96364226Y-90835287D01*
X96364223Y-90835288D01*
X96217390Y-90925856D01*
X96095403Y-91047843D01*
X96004835Y-91194676D01*
X96004834Y-91194679D01*
X95950568Y-91358442D01*
X95950568Y-91358443D01*
X95950567Y-91358443D01*
X95940242Y-91459510D01*
X95940242Y-91847027D01*
X95920557Y-91914066D01*
X95903923Y-91934708D01*
X95501583Y-92337048D01*
X95391935Y-92446694D01*
X95355878Y-92469366D01*
X95356756Y-92471188D01*
X95350478Y-92474211D01*
X95197737Y-92570184D01*
X95070184Y-92697737D01*
X94974211Y-92850476D01*
X94914631Y-93020745D01*
X94914630Y-93020750D01*
X94894435Y-93199996D01*
X94894435Y-93200003D01*
X94914630Y-93379249D01*
X94914631Y-93379254D01*
X94974211Y-93549523D01*
X95052007Y-93673334D01*
X95070184Y-93702262D01*
X95197738Y-93829816D01*
X95350478Y-93925789D01*
X95520745Y-93985368D01*
X95520750Y-93985369D01*
X95699996Y-94005565D01*
X95700000Y-94005565D01*
X95700004Y-94005565D01*
X95879249Y-93985369D01*
X95879252Y-93985368D01*
X95879255Y-93985368D01*
X96049522Y-93925789D01*
X96202262Y-93829816D01*
X96325260Y-93706818D01*
X96386583Y-93673334D01*
X96412941Y-93670500D01*
X100443920Y-93670500D01*
X100541462Y-93651096D01*
X100588913Y-93641658D01*
X100725495Y-93585084D01*
X100796038Y-93537949D01*
X100796041Y-93537946D01*
X100796043Y-93537946D01*
X100809265Y-93529111D01*
X100848416Y-93502952D01*
X101524549Y-92826819D01*
X101585872Y-92793334D01*
X101612230Y-92790500D01*
X114884241Y-92790500D01*
X114951280Y-92810185D01*
X114971922Y-92826818D01*
X115128599Y-92983495D01*
X115128602Y-92983497D01*
X115128603Y-92983498D01*
X115314158Y-93113425D01*
X115357783Y-93168002D01*
X115364977Y-93237500D01*
X115333454Y-93299855D01*
X115314158Y-93316575D01*
X115128597Y-93446505D01*
X114961505Y-93613597D01*
X114825965Y-93807169D01*
X114825964Y-93807171D01*
X114726098Y-94021335D01*
X114726094Y-94021344D01*
X114664938Y-94249586D01*
X114664936Y-94249596D01*
X114644341Y-94484999D01*
X114644341Y-94485000D01*
X114664936Y-94720403D01*
X114664938Y-94720413D01*
X114726094Y-94948655D01*
X114726096Y-94948659D01*
X114726097Y-94948663D01*
X114816405Y-95142328D01*
X114825965Y-95162830D01*
X114825967Y-95162834D01*
X114961501Y-95356395D01*
X114961506Y-95356402D01*
X115128597Y-95523493D01*
X115128603Y-95523498D01*
X115314158Y-95653425D01*
X115357783Y-95708002D01*
X115364977Y-95777500D01*
X115333454Y-95839855D01*
X115314158Y-95856575D01*
X115128597Y-95986505D01*
X114961505Y-96153597D01*
X114825965Y-96347169D01*
X114825964Y-96347171D01*
X114726098Y-96561335D01*
X114726094Y-96561344D01*
X114664938Y-96789586D01*
X114664936Y-96789596D01*
X114644341Y-97024999D01*
X114644341Y-97025000D01*
X114664936Y-97260403D01*
X114664938Y-97260413D01*
X114726094Y-97488655D01*
X114726096Y-97488659D01*
X114726097Y-97488663D01*
X114825965Y-97702830D01*
X114825967Y-97702834D01*
X114871832Y-97768336D01*
X114894159Y-97834542D01*
X114877149Y-97902310D01*
X114857938Y-97927140D01*
X113321899Y-99463181D01*
X113260576Y-99496666D01*
X113234218Y-99499500D01*
X87794504Y-99499500D01*
X87727465Y-99479815D01*
X87681710Y-99427011D01*
X87671766Y-99357853D01*
X87678897Y-99334464D01*
X87677703Y-99334046D01*
X87735822Y-99167949D01*
X87735824Y-99167941D01*
X87754746Y-99000003D01*
X87754746Y-98999996D01*
X87735824Y-98832056D01*
X87680266Y-98673285D01*
X87140008Y-99213543D01*
X87078685Y-99247028D01*
X87038444Y-99249082D01*
X87000003Y-99244751D01*
X86999996Y-99244751D01*
X86961553Y-99249082D01*
X86892731Y-99237027D01*
X86859990Y-99213543D01*
X86319732Y-98673285D01*
X86264176Y-98832053D01*
X86264175Y-98832058D01*
X86245254Y-98999996D01*
X86245254Y-99000003D01*
X86264175Y-99167941D01*
X86264177Y-99167949D01*
X86322297Y-99334046D01*
X86319408Y-99335056D01*
X86328574Y-99390597D01*
X86300873Y-99454741D01*
X86242891Y-99493727D01*
X86205496Y-99499500D01*
X70624500Y-99499500D01*
X70557461Y-99479815D01*
X70511706Y-99427011D01*
X70500500Y-99375500D01*
X70500500Y-98319732D01*
X86673285Y-98319732D01*
X87000000Y-98646447D01*
X87000001Y-98646447D01*
X87326714Y-98319732D01*
X87167943Y-98264176D01*
X87167938Y-98264175D01*
X87000004Y-98245254D01*
X86999996Y-98245254D01*
X86832058Y-98264175D01*
X86832053Y-98264176D01*
X86673285Y-98319732D01*
X70500500Y-98319732D01*
X70500500Y-94401456D01*
X70474212Y-94269300D01*
X70472158Y-94258975D01*
X70462051Y-94208164D01*
X70423105Y-94114141D01*
X70423104Y-94114139D01*
X70386635Y-94026093D01*
X70386634Y-94026092D01*
X70386632Y-94026086D01*
X70386628Y-94026080D01*
X70277139Y-93862217D01*
X70134686Y-93719764D01*
X70134655Y-93719735D01*
X67736818Y-91321898D01*
X67703333Y-91260575D01*
X67700499Y-91234217D01*
X67700499Y-90852129D01*
X67700498Y-90852123D01*
X67700497Y-90852116D01*
X67694091Y-90792517D01*
X67666421Y-90718332D01*
X67661438Y-90648642D01*
X67666422Y-90631667D01*
X67694091Y-90557483D01*
X67700500Y-90497873D01*
X67700499Y-90115782D01*
X67720183Y-90048744D01*
X67736818Y-90028101D01*
X67777139Y-89987781D01*
X67777138Y-89987781D01*
X69053102Y-88711819D01*
X69114425Y-88678334D01*
X69140783Y-88675500D01*
X69924545Y-88675500D01*
X69971998Y-88684939D01*
X70007152Y-88699500D01*
X70158165Y-88762052D01*
X70301719Y-88790606D01*
X70334879Y-88797202D01*
X70351458Y-88800500D01*
X70351459Y-88800500D01*
X70351460Y-88800500D01*
X70548540Y-88800500D01*
X80288000Y-88800500D01*
X80355039Y-88820185D01*
X80400794Y-88872989D01*
X80412000Y-88924500D01*
X80412000Y-88961041D01*
X80412000Y-88961043D01*
X80411999Y-88961043D01*
X80450447Y-89154329D01*
X80450450Y-89154339D01*
X80525864Y-89336407D01*
X80525871Y-89336420D01*
X80635359Y-89500280D01*
X80635360Y-89500281D01*
X80635361Y-89500282D01*
X80766519Y-89631440D01*
X80772551Y-89638172D01*
X80774903Y-89640710D01*
X80774909Y-89640717D01*
X81089398Y-89934953D01*
X81124903Y-89995127D01*
X81122239Y-90064946D01*
X81082250Y-90122241D01*
X81017634Y-90148821D01*
X81004680Y-90149500D01*
X80793707Y-90149500D01*
X80726668Y-90129815D01*
X80688713Y-90091472D01*
X80629815Y-89997737D01*
X80502262Y-89870184D01*
X80349523Y-89774211D01*
X80179254Y-89714631D01*
X80179249Y-89714630D01*
X80000004Y-89694435D01*
X79999996Y-89694435D01*
X79820750Y-89714630D01*
X79820745Y-89714631D01*
X79650476Y-89774211D01*
X79497737Y-89870184D01*
X79370184Y-89997737D01*
X79274211Y-90150476D01*
X79214631Y-90320745D01*
X79214630Y-90320750D01*
X79194435Y-90499996D01*
X79194435Y-90500003D01*
X79214630Y-90679249D01*
X79214633Y-90679262D01*
X79274209Y-90849520D01*
X79327309Y-90934029D01*
X79346309Y-91001266D01*
X79327309Y-91065971D01*
X79274209Y-91150479D01*
X79214633Y-91320737D01*
X79214630Y-91320750D01*
X79194435Y-91499996D01*
X79194435Y-91500003D01*
X79214630Y-91679249D01*
X79214631Y-91679254D01*
X79274211Y-91849523D01*
X79327737Y-91934708D01*
X79370184Y-92002262D01*
X79497738Y-92129816D01*
X79650478Y-92225789D01*
X79820745Y-92285368D01*
X79820750Y-92285369D01*
X79999996Y-92305565D01*
X80000000Y-92305565D01*
X80000004Y-92305565D01*
X80179249Y-92285369D01*
X80179252Y-92285368D01*
X80179255Y-92285368D01*
X80349522Y-92225789D01*
X80502262Y-92129816D01*
X80629816Y-92002262D01*
X80725789Y-91849522D01*
X80731379Y-91833545D01*
X80772100Y-91776770D01*
X80837053Y-91751022D01*
X80848421Y-91750500D01*
X81550500Y-91750500D01*
X81617539Y-91770185D01*
X81663294Y-91822989D01*
X81674500Y-91874500D01*
X81674500Y-92323614D01*
X81654815Y-92390653D01*
X81615598Y-92429152D01*
X81543763Y-92473460D01*
X81421774Y-92595449D01*
X81331206Y-92742282D01*
X81331204Y-92742287D01*
X81327943Y-92752128D01*
X81276939Y-92906048D01*
X81276939Y-92906049D01*
X81276938Y-92906049D01*
X81266613Y-93007116D01*
X81266613Y-93580470D01*
X81266614Y-93580488D01*
X81276938Y-93681553D01*
X81313222Y-93791050D01*
X81331133Y-93845101D01*
X81331205Y-93845316D01*
X81331206Y-93845319D01*
X81365508Y-93900930D01*
X81421773Y-93992151D01*
X81543763Y-94114141D01*
X81690597Y-94204709D01*
X81854360Y-94258975D01*
X81955436Y-94269301D01*
X82653789Y-94269300D01*
X82653797Y-94269299D01*
X82653800Y-94269299D01*
X82709143Y-94263645D01*
X82754866Y-94258975D01*
X82918629Y-94204709D01*
X83065463Y-94114141D01*
X83079784Y-94099819D01*
X83141102Y-94066334D01*
X83210794Y-94071315D01*
X83255147Y-94099818D01*
X83269074Y-94113745D01*
X83269078Y-94113748D01*
X83415801Y-94204249D01*
X83415812Y-94204254D01*
X83579460Y-94258481D01*
X83680464Y-94268800D01*
X84279613Y-94268800D01*
X84378753Y-94268800D01*
X84378767Y-94268799D01*
X84479765Y-94258481D01*
X84643413Y-94204254D01*
X84643424Y-94204249D01*
X84790147Y-94113748D01*
X84790151Y-94113745D01*
X84912057Y-93991839D01*
X84912060Y-93991835D01*
X85002561Y-93845112D01*
X85002566Y-93845101D01*
X85056793Y-93681453D01*
X85067112Y-93580455D01*
X85067113Y-93580442D01*
X85067113Y-93543801D01*
X84279613Y-93543801D01*
X84279613Y-94268800D01*
X83680464Y-94268800D01*
X83779613Y-94268799D01*
X83779613Y-93043801D01*
X84279613Y-93043801D01*
X85067112Y-93043801D01*
X85067112Y-93007161D01*
X85067111Y-93007146D01*
X85056793Y-92906148D01*
X85002566Y-92742500D01*
X85002561Y-92742489D01*
X84912060Y-92595766D01*
X84912057Y-92595762D01*
X84790151Y-92473856D01*
X84790147Y-92473853D01*
X84643424Y-92383352D01*
X84643413Y-92383347D01*
X84479765Y-92329120D01*
X84378767Y-92318801D01*
X84279613Y-92318801D01*
X84279613Y-93043801D01*
X83779613Y-93043801D01*
X83779613Y-92318800D01*
X83680473Y-92318801D01*
X83680457Y-92318802D01*
X83579460Y-92329120D01*
X83415812Y-92383347D01*
X83415801Y-92383352D01*
X83269078Y-92473853D01*
X83255145Y-92487786D01*
X83193821Y-92521269D01*
X83124129Y-92516283D01*
X83079785Y-92487783D01*
X83065463Y-92473461D01*
X83065459Y-92473458D01*
X82934403Y-92392621D01*
X82887678Y-92340673D01*
X82875500Y-92287083D01*
X82875500Y-91807898D01*
X82895185Y-91740859D01*
X82947989Y-91695104D01*
X82952049Y-91693336D01*
X82981621Y-91681087D01*
X83108631Y-91583628D01*
X83188771Y-91479189D01*
X83245199Y-91437986D01*
X83301493Y-91431509D01*
X83879878Y-91498911D01*
X83883625Y-91498975D01*
X83895361Y-91500235D01*
X83895394Y-91499902D01*
X83901454Y-91500499D01*
X83901459Y-91500500D01*
X83970704Y-91500500D01*
X83972848Y-91500518D01*
X83980482Y-91500651D01*
X83980482Y-91500650D01*
X83984195Y-91500715D01*
X83988357Y-91500500D01*
X89098543Y-91500500D01*
X89170407Y-91486204D01*
X89206341Y-91479057D01*
X89291836Y-91462051D01*
X89378957Y-91425964D01*
X89473914Y-91386632D01*
X89637782Y-91277139D01*
X89777139Y-91137782D01*
X89777139Y-91137780D01*
X89787347Y-91127573D01*
X89787348Y-91127570D01*
X90777140Y-90137781D01*
X90886632Y-89973914D01*
X90962052Y-89791835D01*
X91000501Y-89598540D01*
X91000501Y-89401459D01*
X91000501Y-89396349D01*
X91000500Y-89396323D01*
X91000500Y-85965782D01*
X91020185Y-85898743D01*
X91036819Y-85878101D01*
X94378102Y-82536819D01*
X94439425Y-82503334D01*
X94465783Y-82500500D01*
X105401459Y-82500500D01*
X113034218Y-82500500D01*
X113101257Y-82520185D01*
G37*
%TD.AperFunction*%
%TA.AperFunction,Conductor*%
G36*
X118104043Y-77425765D02*
G01*
X118352895Y-77442075D01*
X118368953Y-77444190D01*
X118576105Y-77485395D01*
X118609535Y-77492045D01*
X118625202Y-77496243D01*
X118794947Y-77553863D01*
X118857481Y-77575091D01*
X118872458Y-77581294D01*
X119081799Y-77684529D01*
X119092460Y-77689787D01*
X119106508Y-77697897D01*
X119310464Y-77834177D01*
X119323328Y-77844048D01*
X119507749Y-78005781D01*
X119519218Y-78017250D01*
X119680951Y-78201671D01*
X119690825Y-78214539D01*
X119827102Y-78418492D01*
X119835212Y-78432539D01*
X119943702Y-78652534D01*
X119949909Y-78667520D01*
X120028756Y-78899797D01*
X120032954Y-78915464D01*
X120080807Y-79156035D01*
X120082925Y-79172116D01*
X120099235Y-79420956D01*
X120099500Y-79429066D01*
X120099500Y-101920933D01*
X120099235Y-101929043D01*
X120082925Y-102177883D01*
X120080807Y-102193964D01*
X120032954Y-102434535D01*
X120028756Y-102450202D01*
X119949909Y-102682479D01*
X119943702Y-102697465D01*
X119835212Y-102917460D01*
X119827102Y-102931507D01*
X119690825Y-103135460D01*
X119680951Y-103148328D01*
X119519218Y-103332749D01*
X119507749Y-103344218D01*
X119323328Y-103505951D01*
X119310460Y-103515825D01*
X119106507Y-103652102D01*
X119092460Y-103660212D01*
X118872465Y-103768702D01*
X118857479Y-103774909D01*
X118625202Y-103853756D01*
X118609535Y-103857954D01*
X118368964Y-103905807D01*
X118352883Y-103907925D01*
X118104043Y-103924235D01*
X118095933Y-103924500D01*
X62504067Y-103924500D01*
X62495957Y-103924235D01*
X62247116Y-103907925D01*
X62231035Y-103905807D01*
X61990464Y-103857954D01*
X61974797Y-103853756D01*
X61742520Y-103774909D01*
X61727534Y-103768702D01*
X61507539Y-103660212D01*
X61493492Y-103652102D01*
X61289539Y-103515825D01*
X61276671Y-103505951D01*
X61092250Y-103344218D01*
X61080781Y-103332749D01*
X60919048Y-103148328D01*
X60909174Y-103135460D01*
X60772897Y-102931507D01*
X60764787Y-102917460D01*
X60658855Y-102702652D01*
X60656294Y-102697458D01*
X60650090Y-102682479D01*
X60571243Y-102450202D01*
X60567045Y-102434535D01*
X60559186Y-102395026D01*
X60519190Y-102193953D01*
X60517075Y-102177895D01*
X60500765Y-101929043D01*
X60500500Y-101920933D01*
X60500500Y-92752135D01*
X61499500Y-92752135D01*
X61499500Y-94947870D01*
X61499501Y-94947876D01*
X61505908Y-95007483D01*
X61556202Y-95142328D01*
X61556206Y-95142335D01*
X61642452Y-95257544D01*
X61642455Y-95257547D01*
X61757664Y-95343793D01*
X61757671Y-95343797D01*
X61892517Y-95394091D01*
X61892516Y-95394091D01*
X61899444Y-95394835D01*
X61952127Y-95400500D01*
X65047872Y-95400499D01*
X65107483Y-95394091D01*
X65242331Y-95343796D01*
X65357546Y-95257546D01*
X65443796Y-95142331D01*
X65494091Y-95007483D01*
X65500500Y-94947873D01*
X65500499Y-92752128D01*
X65494091Y-92692517D01*
X65468099Y-92622830D01*
X65443797Y-92557671D01*
X65443793Y-92557664D01*
X65357547Y-92442455D01*
X65357544Y-92442452D01*
X65252717Y-92363978D01*
X65244128Y-92352505D01*
X65229638Y-92351469D01*
X65107482Y-92305908D01*
X65107483Y-92305908D01*
X65047883Y-92299501D01*
X65047881Y-92299500D01*
X65047873Y-92299500D01*
X65047864Y-92299500D01*
X61952129Y-92299500D01*
X61952123Y-92299501D01*
X61892516Y-92305908D01*
X61757671Y-92356202D01*
X61757664Y-92356206D01*
X61642455Y-92442452D01*
X61642452Y-92442455D01*
X61556206Y-92557664D01*
X61556202Y-92557671D01*
X61505908Y-92692517D01*
X61500558Y-92742282D01*
X61499501Y-92752123D01*
X61499500Y-92752135D01*
X60500500Y-92752135D01*
X60500500Y-86402135D01*
X61499500Y-86402135D01*
X61499500Y-88597870D01*
X61499501Y-88597876D01*
X61505908Y-88657483D01*
X61556202Y-88792328D01*
X61556206Y-88792335D01*
X61642452Y-88907544D01*
X61642455Y-88907547D01*
X61757664Y-88993793D01*
X61757671Y-88993797D01*
X61892517Y-89044091D01*
X61892516Y-89044091D01*
X61899444Y-89044835D01*
X61952127Y-89050500D01*
X65047872Y-89050499D01*
X65107483Y-89044091D01*
X65229638Y-88998529D01*
X65244127Y-88997493D01*
X65252715Y-88986022D01*
X65357546Y-88907546D01*
X65443796Y-88792331D01*
X65494091Y-88657483D01*
X65500500Y-88597873D01*
X65500499Y-86402128D01*
X65494091Y-86342517D01*
X65489353Y-86329815D01*
X65443797Y-86207671D01*
X65443793Y-86207664D01*
X65357547Y-86092455D01*
X65357544Y-86092452D01*
X65242335Y-86006206D01*
X65242328Y-86006202D01*
X65107482Y-85955908D01*
X65107483Y-85955908D01*
X65047883Y-85949501D01*
X65047881Y-85949500D01*
X65047873Y-85949500D01*
X65047864Y-85949500D01*
X61952129Y-85949500D01*
X61952123Y-85949501D01*
X61892516Y-85955908D01*
X61757671Y-86006202D01*
X61757664Y-86006206D01*
X61642455Y-86092452D01*
X61642452Y-86092455D01*
X61556206Y-86207664D01*
X61556202Y-86207671D01*
X61505908Y-86342517D01*
X61501425Y-86384218D01*
X61499501Y-86402123D01*
X61499500Y-86402135D01*
X60500500Y-86402135D01*
X60500500Y-80699983D01*
X64999500Y-80699983D01*
X64999500Y-81300001D01*
X64999501Y-81300019D01*
X65010000Y-81402796D01*
X65010001Y-81402799D01*
X65042211Y-81500000D01*
X65065186Y-81569334D01*
X65157288Y-81718656D01*
X65281344Y-81842712D01*
X65430666Y-81934814D01*
X65597203Y-81989999D01*
X65699991Y-82000500D01*
X66391456Y-82000499D01*
X66391470Y-82000500D01*
X66401459Y-82000500D01*
X68375500Y-82000500D01*
X68442539Y-82020185D01*
X68488294Y-82072989D01*
X68499500Y-82124500D01*
X68499500Y-86384217D01*
X68479815Y-86451256D01*
X68463181Y-86471898D01*
X68037218Y-86897861D01*
X67834673Y-87100407D01*
X67834671Y-87100409D01*
X67787222Y-87147855D01*
X67787218Y-87147861D01*
X66362219Y-88572861D01*
X65821897Y-89113181D01*
X65760574Y-89146666D01*
X65734217Y-89149500D01*
X65552130Y-89149500D01*
X65552123Y-89149501D01*
X65492515Y-89155909D01*
X65370360Y-89201469D01*
X65355871Y-89202505D01*
X65347283Y-89213978D01*
X65242452Y-89292455D01*
X65156206Y-89407664D01*
X65156202Y-89407671D01*
X65105908Y-89542517D01*
X65099501Y-89602116D01*
X65099500Y-89602135D01*
X65099500Y-90497870D01*
X65099501Y-90497876D01*
X65105908Y-90557483D01*
X65133577Y-90631667D01*
X65138561Y-90701358D01*
X65133577Y-90718331D01*
X65105909Y-90792514D01*
X65105908Y-90792516D01*
X65101310Y-90835288D01*
X65099501Y-90852123D01*
X65099500Y-90852135D01*
X65099500Y-91747870D01*
X65099501Y-91747876D01*
X65105908Y-91807483D01*
X65156202Y-91942328D01*
X65156206Y-91942335D01*
X65242452Y-92057544D01*
X65242455Y-92057547D01*
X65347282Y-92136021D01*
X65355870Y-92147493D01*
X65370361Y-92148530D01*
X65404235Y-92161164D01*
X65492517Y-92194091D01*
X65552127Y-92200500D01*
X65734216Y-92200499D01*
X65801256Y-92220183D01*
X65821898Y-92236818D01*
X68463181Y-94878101D01*
X68496666Y-94939424D01*
X68499500Y-94965782D01*
X68499500Y-99375500D01*
X68479815Y-99442539D01*
X68427011Y-99488294D01*
X68375500Y-99499500D01*
X65699998Y-99499500D01*
X65699980Y-99499501D01*
X65597203Y-99510000D01*
X65597200Y-99510001D01*
X65430668Y-99565185D01*
X65430663Y-99565187D01*
X65281342Y-99657289D01*
X65157289Y-99781342D01*
X65065187Y-99930663D01*
X65065186Y-99930666D01*
X65010001Y-100097203D01*
X65010001Y-100097204D01*
X65010000Y-100097204D01*
X64999500Y-100199983D01*
X64999500Y-100800001D01*
X64999501Y-100800019D01*
X65010000Y-100902796D01*
X65010001Y-100902799D01*
X65065185Y-101069331D01*
X65065186Y-101069334D01*
X65157288Y-101218656D01*
X65281344Y-101342712D01*
X65430666Y-101434814D01*
X65597203Y-101489999D01*
X65699991Y-101500500D01*
X66391456Y-101500499D01*
X66391470Y-101500500D01*
X66401459Y-101500500D01*
X113798542Y-101500500D01*
X113817870Y-101496655D01*
X113895188Y-101481275D01*
X113991836Y-101462051D01*
X114057591Y-101434814D01*
X114173914Y-101386632D01*
X114337782Y-101277139D01*
X114477139Y-101137782D01*
X114477140Y-101137779D01*
X114484206Y-101130714D01*
X114484209Y-101130710D01*
X116637778Y-98977141D01*
X116637782Y-98977139D01*
X116777139Y-98837782D01*
X116886632Y-98673914D01*
X116962051Y-98491835D01*
X117000500Y-98298541D01*
X117000500Y-97985758D01*
X117020185Y-97918719D01*
X117036819Y-97898077D01*
X117038495Y-97896401D01*
X117174035Y-97702830D01*
X117273903Y-97488663D01*
X117335063Y-97260408D01*
X117355659Y-97025000D01*
X117335063Y-96789592D01*
X117273903Y-96561337D01*
X117174035Y-96347171D01*
X117038495Y-96153599D01*
X117038494Y-96153597D01*
X116871402Y-95986506D01*
X116871396Y-95986501D01*
X116685842Y-95856575D01*
X116642217Y-95801998D01*
X116635023Y-95732500D01*
X116666546Y-95670145D01*
X116685842Y-95653425D01*
X116708026Y-95637891D01*
X116871401Y-95523495D01*
X117038495Y-95356401D01*
X117174035Y-95162830D01*
X117273903Y-94948663D01*
X117335063Y-94720408D01*
X117355659Y-94485000D01*
X117335063Y-94249592D01*
X117275177Y-94026093D01*
X117273905Y-94021344D01*
X117273904Y-94021343D01*
X117273903Y-94021337D01*
X117174035Y-93807171D01*
X117112833Y-93719764D01*
X117038494Y-93613597D01*
X116871402Y-93446506D01*
X116871396Y-93446501D01*
X116685842Y-93316575D01*
X116642217Y-93261998D01*
X116635023Y-93192500D01*
X116666546Y-93130145D01*
X116685842Y-93113425D01*
X116818195Y-93020750D01*
X116871401Y-92983495D01*
X117038495Y-92816401D01*
X117174035Y-92622830D01*
X117273903Y-92408663D01*
X117335063Y-92180408D01*
X117355659Y-91945000D01*
X117355425Y-91942331D01*
X117347306Y-91849523D01*
X117335063Y-91709592D01*
X117278967Y-91500235D01*
X117273905Y-91481344D01*
X117273904Y-91481343D01*
X117273903Y-91481337D01*
X117174035Y-91267171D01*
X117169417Y-91260575D01*
X117038494Y-91073597D01*
X116871402Y-90906506D01*
X116871396Y-90906501D01*
X116685842Y-90776575D01*
X116642217Y-90721998D01*
X116635023Y-90652500D01*
X116666546Y-90590145D01*
X116685842Y-90573425D01*
X116790699Y-90500003D01*
X116871401Y-90443495D01*
X117038495Y-90276401D01*
X117174035Y-90082830D01*
X117273903Y-89868663D01*
X117335063Y-89640408D01*
X117355659Y-89405000D01*
X117335063Y-89169592D01*
X117273903Y-88941337D01*
X117174035Y-88727171D01*
X117167190Y-88717394D01*
X117038494Y-88533597D01*
X116871402Y-88366506D01*
X116871396Y-88366501D01*
X116685842Y-88236575D01*
X116642217Y-88181998D01*
X116635023Y-88112500D01*
X116666546Y-88050145D01*
X116685842Y-88033425D01*
X116807341Y-87948350D01*
X116871401Y-87903495D01*
X117038495Y-87736401D01*
X117174035Y-87542830D01*
X117273903Y-87328663D01*
X117335063Y-87100408D01*
X117355659Y-86865000D01*
X117335063Y-86629592D01*
X117273903Y-86401337D01*
X117174035Y-86187171D01*
X117164239Y-86173181D01*
X117038496Y-85993600D01*
X116994396Y-85949500D01*
X116916567Y-85871671D01*
X116883084Y-85810351D01*
X116888068Y-85740659D01*
X116929939Y-85684725D01*
X116960915Y-85667810D01*
X117092331Y-85618796D01*
X117207546Y-85532546D01*
X117293796Y-85417331D01*
X117344091Y-85282483D01*
X117350500Y-85222873D01*
X117350499Y-83427128D01*
X117344091Y-83367517D01*
X117339668Y-83355659D01*
X117293797Y-83232671D01*
X117293793Y-83232664D01*
X117207547Y-83117455D01*
X117207544Y-83117452D01*
X117092335Y-83031206D01*
X117092328Y-83031202D01*
X116957482Y-82980908D01*
X116957483Y-82980908D01*
X116897883Y-82974501D01*
X116897881Y-82974500D01*
X116897873Y-82974500D01*
X116897865Y-82974500D01*
X116440782Y-82974500D01*
X116373743Y-82954815D01*
X116353101Y-82938181D01*
X114281479Y-80866559D01*
X114281459Y-80866537D01*
X114137785Y-80722863D01*
X114137781Y-80722860D01*
X113973920Y-80613371D01*
X113973911Y-80613366D01*
X113901315Y-80583296D01*
X113845165Y-80560038D01*
X113791836Y-80537949D01*
X113791832Y-80537948D01*
X113791828Y-80537946D01*
X113695188Y-80518724D01*
X113598544Y-80499500D01*
X113598541Y-80499500D01*
X105598541Y-80499500D01*
X93901459Y-80499500D01*
X93901455Y-80499500D01*
X93804812Y-80518724D01*
X93708167Y-80537947D01*
X93708161Y-80537949D01*
X93654834Y-80560037D01*
X93654834Y-80560038D01*
X93609315Y-80578892D01*
X93526089Y-80613366D01*
X93526079Y-80613371D01*
X93396444Y-80699992D01*
X93396443Y-80699993D01*
X93362215Y-80722862D01*
X93362214Y-80722863D01*
X90056978Y-84028101D01*
X89362220Y-84722859D01*
X89362218Y-84722861D01*
X89292538Y-84792540D01*
X89222859Y-84862219D01*
X89113371Y-85026079D01*
X89113366Y-85026089D01*
X89080716Y-85104913D01*
X89067089Y-85137813D01*
X89060038Y-85154835D01*
X89037949Y-85208160D01*
X89035024Y-85222870D01*
X89035023Y-85222873D01*
X88999500Y-85401456D01*
X88999500Y-89034217D01*
X88979815Y-89101256D01*
X88963181Y-89121898D01*
X88621899Y-89463181D01*
X88560576Y-89496666D01*
X88534218Y-89499500D01*
X84748072Y-89499500D01*
X84681033Y-89479815D01*
X84635278Y-89427011D01*
X84625334Y-89357853D01*
X84631030Y-89334546D01*
X84685367Y-89179257D01*
X84685368Y-89179255D01*
X84685369Y-89179249D01*
X84705565Y-89000003D01*
X84705565Y-88999996D01*
X84685369Y-88820750D01*
X84685368Y-88820745D01*
X84678284Y-88800500D01*
X84625789Y-88650478D01*
X84529816Y-88497738D01*
X84402262Y-88370184D01*
X84249522Y-88274211D01*
X84249521Y-88274210D01*
X84243254Y-88271193D01*
X84244031Y-88269578D01*
X84194640Y-88234151D01*
X84168894Y-88169198D01*
X84169014Y-88145228D01*
X84174999Y-88086649D01*
X84175000Y-88086641D01*
X84175000Y-88050000D01*
X83011500Y-88050000D01*
X82944461Y-88030315D01*
X82898706Y-87977511D01*
X82887500Y-87926000D01*
X82887500Y-87550000D01*
X83387500Y-87550000D01*
X84174999Y-87550000D01*
X84174999Y-87513360D01*
X84174998Y-87513345D01*
X84164680Y-87412347D01*
X84110453Y-87248699D01*
X84110448Y-87248688D01*
X84019947Y-87101965D01*
X84019944Y-87101961D01*
X83898038Y-86980055D01*
X83898034Y-86980052D01*
X83751311Y-86889551D01*
X83751300Y-86889546D01*
X83587652Y-86835319D01*
X83486654Y-86825000D01*
X83387500Y-86825000D01*
X83387500Y-87550000D01*
X82887500Y-87550000D01*
X82887500Y-86824999D01*
X82788360Y-86825000D01*
X82788344Y-86825001D01*
X82687347Y-86835319D01*
X82523699Y-86889546D01*
X82523688Y-86889551D01*
X82376965Y-86980052D01*
X82363032Y-86993985D01*
X82301708Y-87027468D01*
X82232016Y-87022482D01*
X82187672Y-86993982D01*
X82173351Y-86979661D01*
X82173350Y-86979660D01*
X82040730Y-86897859D01*
X82026518Y-86889093D01*
X82026513Y-86889091D01*
X82025069Y-86888612D01*
X81862753Y-86834826D01*
X81862751Y-86834825D01*
X81761684Y-86824500D01*
X81761677Y-86824500D01*
X81648934Y-86824500D01*
X81624743Y-86822117D01*
X81587051Y-86814619D01*
X81511043Y-86799500D01*
X81511041Y-86799500D01*
X70915782Y-86799500D01*
X70848743Y-86779815D01*
X70828101Y-86763181D01*
X70536819Y-86471899D01*
X70503334Y-86410576D01*
X70500500Y-86384218D01*
X70500500Y-81102155D01*
X78610000Y-81102155D01*
X78610000Y-81750000D01*
X79526988Y-81750000D01*
X79494075Y-81807007D01*
X79460000Y-81934174D01*
X79460000Y-82065826D01*
X79494075Y-82192993D01*
X79526988Y-82250000D01*
X78610000Y-82250000D01*
X78610000Y-82897844D01*
X78616401Y-82957372D01*
X78616403Y-82957379D01*
X78666645Y-83092086D01*
X78666649Y-83092093D01*
X78752809Y-83207187D01*
X78752812Y-83207190D01*
X78867906Y-83293350D01*
X78867913Y-83293354D01*
X79002620Y-83343596D01*
X79002627Y-83343598D01*
X79062155Y-83349999D01*
X79062172Y-83350000D01*
X79710000Y-83350000D01*
X79710000Y-82433012D01*
X79767007Y-82465925D01*
X79894174Y-82500000D01*
X80025826Y-82500000D01*
X80152993Y-82465925D01*
X80210000Y-82433012D01*
X80210000Y-83350000D01*
X80857828Y-83350000D01*
X80857844Y-83349999D01*
X80917372Y-83343598D01*
X80917379Y-83343596D01*
X81052086Y-83293354D01*
X81052093Y-83293350D01*
X81167187Y-83207190D01*
X81167190Y-83207187D01*
X81253350Y-83092093D01*
X81253354Y-83092086D01*
X81302422Y-82960529D01*
X81344293Y-82904595D01*
X81409757Y-82880178D01*
X81478030Y-82895030D01*
X81506285Y-82916181D01*
X81628599Y-83038495D01*
X81705135Y-83092086D01*
X81822165Y-83174032D01*
X81822167Y-83174033D01*
X81822170Y-83174035D01*
X82036337Y-83273903D01*
X82264592Y-83335063D01*
X82435319Y-83350000D01*
X82499999Y-83355659D01*
X82500000Y-83355659D01*
X82500001Y-83355659D01*
X82564681Y-83350000D01*
X82735408Y-83335063D01*
X82963663Y-83273903D01*
X83177830Y-83174035D01*
X83371401Y-83038495D01*
X83538495Y-82871401D01*
X83674035Y-82677830D01*
X83773903Y-82463663D01*
X83835063Y-82235408D01*
X83855659Y-82000000D01*
X83835063Y-81764592D01*
X83773903Y-81536337D01*
X83674035Y-81322171D01*
X83658517Y-81300008D01*
X83538494Y-81128597D01*
X83371402Y-80961506D01*
X83371395Y-80961501D01*
X83177834Y-80825967D01*
X83177830Y-80825965D01*
X83106727Y-80792809D01*
X82963663Y-80726097D01*
X82963659Y-80726096D01*
X82963655Y-80726094D01*
X82735413Y-80664938D01*
X82735403Y-80664936D01*
X82500001Y-80644341D01*
X82499999Y-80644341D01*
X82264596Y-80664936D01*
X82264586Y-80664938D01*
X82036344Y-80726094D01*
X82036335Y-80726098D01*
X81822171Y-80825964D01*
X81822169Y-80825965D01*
X81628600Y-80961503D01*
X81506284Y-81083819D01*
X81444961Y-81117303D01*
X81375269Y-81112319D01*
X81319336Y-81070447D01*
X81302421Y-81039470D01*
X81253354Y-80907913D01*
X81253350Y-80907906D01*
X81167190Y-80792812D01*
X81167187Y-80792809D01*
X81052093Y-80706649D01*
X81052086Y-80706645D01*
X80917379Y-80656403D01*
X80917372Y-80656401D01*
X80857844Y-80650000D01*
X80210000Y-80650000D01*
X80210000Y-81566988D01*
X80152993Y-81534075D01*
X80025826Y-81500000D01*
X79894174Y-81500000D01*
X79767007Y-81534075D01*
X79710000Y-81566988D01*
X79710000Y-80650000D01*
X79062155Y-80650000D01*
X79002627Y-80656401D01*
X79002620Y-80656403D01*
X78867913Y-80706645D01*
X78867906Y-80706649D01*
X78752812Y-80792809D01*
X78752809Y-80792812D01*
X78666649Y-80907906D01*
X78666645Y-80907913D01*
X78616403Y-81042620D01*
X78616401Y-81042627D01*
X78610000Y-81102155D01*
X70500500Y-81102155D01*
X70500500Y-80901456D01*
X70462052Y-80708170D01*
X70462051Y-80708169D01*
X70462051Y-80708165D01*
X70440610Y-80656401D01*
X70386635Y-80526092D01*
X70386628Y-80526079D01*
X70277139Y-80362218D01*
X70277136Y-80362214D01*
X70137785Y-80222863D01*
X70137781Y-80222860D01*
X69973920Y-80113371D01*
X69973907Y-80113364D01*
X69791839Y-80037950D01*
X69791829Y-80037947D01*
X69598543Y-79999500D01*
X69598541Y-79999500D01*
X66401459Y-79999500D01*
X66401456Y-79999500D01*
X65699998Y-79999500D01*
X65699980Y-79999501D01*
X65597203Y-80010000D01*
X65597200Y-80010001D01*
X65430668Y-80065185D01*
X65430663Y-80065187D01*
X65281342Y-80157289D01*
X65157289Y-80281342D01*
X65065187Y-80430663D01*
X65065186Y-80430666D01*
X65010001Y-80597203D01*
X65010001Y-80597204D01*
X65010000Y-80597204D01*
X64999500Y-80699983D01*
X60500500Y-80699983D01*
X60500500Y-79429066D01*
X60500765Y-79420956D01*
X60504819Y-79359108D01*
X60517075Y-79172102D01*
X60519190Y-79156048D01*
X60567045Y-78915462D01*
X60571243Y-78899797D01*
X60594337Y-78831762D01*
X60650093Y-78667512D01*
X60656291Y-78652547D01*
X60764790Y-78432533D01*
X60772893Y-78418498D01*
X60909182Y-78214527D01*
X60919039Y-78201681D01*
X61080786Y-78017244D01*
X61092244Y-78005786D01*
X61276681Y-77844039D01*
X61289527Y-77834182D01*
X61493498Y-77697893D01*
X61507533Y-77689790D01*
X61727547Y-77581291D01*
X61742512Y-77575093D01*
X61906762Y-77519337D01*
X61974797Y-77496243D01*
X61990464Y-77492045D01*
X62231048Y-77444190D01*
X62247102Y-77442075D01*
X62495957Y-77425765D01*
X62504067Y-77425500D01*
X62565892Y-77425500D01*
X118034108Y-77425500D01*
X118095933Y-77425500D01*
X118104043Y-77425765D01*
G37*
%TD.AperFunction*%
%TD*%
M02*
