%TF.GenerationSoftware,KiCad,Pcbnew,8.0.3*%
%TF.CreationDate,2024-06-23T18:33:12+02:00*%
%TF.ProjectId,MAX17262-breakout,4d415831-3732-4363-922d-627265616b6f,rev?*%
%TF.SameCoordinates,Original*%
%TF.FileFunction,Drillmap*%
%TF.FilePolarity,Positive*%
%FSLAX45Y45*%
G04 Gerber Fmt 4.5, Leading zero omitted, Abs format (unit mm)*
G04 Created by KiCad (PCBNEW 8.0.3) date 2024-06-23 18:33:12*
%MOMM*%
%LPD*%
G01*
G04 APERTURE LIST*
%ADD10C,0.050000*%
%ADD11C,0.200000*%
%ADD12C,0.100000*%
G04 APERTURE END LIST*
D10*
X11810000Y-7692500D02*
G75*
G02*
X12060000Y-7942500I0J-250000D01*
G01*
X6000000Y-10192500D02*
X6000000Y-7942500D01*
X6250000Y-10442500D02*
G75*
G02*
X6000000Y-10192500I0J250000D01*
G01*
X11810000Y-10442500D02*
X6250000Y-10442500D01*
X6250000Y-7692500D02*
X11810000Y-7692500D01*
X12060000Y-10192500D02*
G75*
G02*
X11810000Y-10442500I-250000J0D01*
G01*
X6000000Y-7942500D02*
G75*
G02*
X6250000Y-7692500I250000J0D01*
G01*
X12060000Y-7942500D02*
X12060000Y-10192500D01*
D11*
D12*
X6985000Y-9085000D02*
X7015000Y-9115000D01*
X7015000Y-9085000D02*
X6985000Y-9115000D01*
X7985000Y-9035000D02*
X8015000Y-9065000D01*
X8015000Y-9035000D02*
X7985000Y-9065000D01*
X7985000Y-9135000D02*
X8015000Y-9165000D01*
X8015000Y-9135000D02*
X7985000Y-9165000D01*
X8375000Y-8885000D02*
X8405000Y-8915000D01*
X8405000Y-8885000D02*
X8375000Y-8915000D01*
X8685000Y-8735000D02*
X8715000Y-8765000D01*
X8715000Y-8735000D02*
X8685000Y-8765000D01*
X8785000Y-9335000D02*
X8815000Y-9365000D01*
X8815000Y-9335000D02*
X8785000Y-9365000D01*
X9135000Y-9785000D02*
X9165000Y-9815000D01*
X9165000Y-9785000D02*
X9135000Y-9815000D01*
X9555000Y-8555000D02*
X9585000Y-8585000D01*
X9585000Y-8555000D02*
X9555000Y-8585000D01*
X9555000Y-9305000D02*
X9585000Y-9335000D01*
X9585000Y-9305000D02*
X9555000Y-9335000D01*
X8046000Y-8200000D02*
G75*
G02*
X7946000Y-8200000I-50000J0D01*
G01*
X7946000Y-8200000D02*
G75*
G02*
X8046000Y-8200000I50000J0D01*
G01*
X8300000Y-8200000D02*
G75*
G02*
X8200000Y-8200000I-50000J0D01*
G01*
X8200000Y-8200000D02*
G75*
G02*
X8300000Y-8200000I50000J0D01*
G01*
X11650000Y-8432500D02*
G75*
G02*
X11550000Y-8432500I-50000J0D01*
G01*
X11550000Y-8432500D02*
G75*
G02*
X11650000Y-8432500I50000J0D01*
G01*
X11650000Y-8686500D02*
G75*
G02*
X11550000Y-8686500I-50000J0D01*
G01*
X11550000Y-8686500D02*
G75*
G02*
X11650000Y-8686500I50000J0D01*
G01*
X11650000Y-8940500D02*
G75*
G02*
X11550000Y-8940500I-50000J0D01*
G01*
X11550000Y-8940500D02*
G75*
G02*
X11650000Y-8940500I50000J0D01*
G01*
X11650000Y-9194500D02*
G75*
G02*
X11550000Y-9194500I-50000J0D01*
G01*
X11550000Y-9194500D02*
G75*
G02*
X11650000Y-9194500I50000J0D01*
G01*
X11650000Y-9448500D02*
G75*
G02*
X11550000Y-9448500I-50000J0D01*
G01*
X11550000Y-9448500D02*
G75*
G02*
X11650000Y-9448500I50000J0D01*
G01*
X11650000Y-9702500D02*
G75*
G02*
X11550000Y-9702500I-50000J0D01*
G01*
X11550000Y-9702500D02*
G75*
G02*
X11650000Y-9702500I50000J0D01*
G01*
D11*
X6258277Y-10756484D02*
X6258277Y-10556484D01*
X6258277Y-10556484D02*
X6305896Y-10556484D01*
X6305896Y-10556484D02*
X6334467Y-10566008D01*
X6334467Y-10566008D02*
X6353515Y-10585055D01*
X6353515Y-10585055D02*
X6363039Y-10604103D01*
X6363039Y-10604103D02*
X6372562Y-10642198D01*
X6372562Y-10642198D02*
X6372562Y-10670770D01*
X6372562Y-10670770D02*
X6363039Y-10708865D01*
X6363039Y-10708865D02*
X6353515Y-10727912D01*
X6353515Y-10727912D02*
X6334467Y-10746960D01*
X6334467Y-10746960D02*
X6305896Y-10756484D01*
X6305896Y-10756484D02*
X6258277Y-10756484D01*
X6458277Y-10756484D02*
X6458277Y-10623150D01*
X6458277Y-10661246D02*
X6467801Y-10642198D01*
X6467801Y-10642198D02*
X6477324Y-10632674D01*
X6477324Y-10632674D02*
X6496372Y-10623150D01*
X6496372Y-10623150D02*
X6515420Y-10623150D01*
X6582086Y-10756484D02*
X6582086Y-10623150D01*
X6582086Y-10556484D02*
X6572562Y-10566008D01*
X6572562Y-10566008D02*
X6582086Y-10575531D01*
X6582086Y-10575531D02*
X6591610Y-10566008D01*
X6591610Y-10566008D02*
X6582086Y-10556484D01*
X6582086Y-10556484D02*
X6582086Y-10575531D01*
X6705896Y-10756484D02*
X6686848Y-10746960D01*
X6686848Y-10746960D02*
X6677324Y-10727912D01*
X6677324Y-10727912D02*
X6677324Y-10556484D01*
X6810658Y-10756484D02*
X6791610Y-10746960D01*
X6791610Y-10746960D02*
X6782086Y-10727912D01*
X6782086Y-10727912D02*
X6782086Y-10556484D01*
X7039229Y-10756484D02*
X7039229Y-10556484D01*
X7039229Y-10556484D02*
X7105896Y-10699341D01*
X7105896Y-10699341D02*
X7172562Y-10556484D01*
X7172562Y-10556484D02*
X7172562Y-10756484D01*
X7353515Y-10756484D02*
X7353515Y-10651722D01*
X7353515Y-10651722D02*
X7343991Y-10632674D01*
X7343991Y-10632674D02*
X7324943Y-10623150D01*
X7324943Y-10623150D02*
X7286848Y-10623150D01*
X7286848Y-10623150D02*
X7267801Y-10632674D01*
X7353515Y-10746960D02*
X7334467Y-10756484D01*
X7334467Y-10756484D02*
X7286848Y-10756484D01*
X7286848Y-10756484D02*
X7267801Y-10746960D01*
X7267801Y-10746960D02*
X7258277Y-10727912D01*
X7258277Y-10727912D02*
X7258277Y-10708865D01*
X7258277Y-10708865D02*
X7267801Y-10689817D01*
X7267801Y-10689817D02*
X7286848Y-10680293D01*
X7286848Y-10680293D02*
X7334467Y-10680293D01*
X7334467Y-10680293D02*
X7353515Y-10670770D01*
X7448753Y-10623150D02*
X7448753Y-10823150D01*
X7448753Y-10632674D02*
X7467801Y-10623150D01*
X7467801Y-10623150D02*
X7505896Y-10623150D01*
X7505896Y-10623150D02*
X7524943Y-10632674D01*
X7524943Y-10632674D02*
X7534467Y-10642198D01*
X7534467Y-10642198D02*
X7543991Y-10661246D01*
X7543991Y-10661246D02*
X7543991Y-10718389D01*
X7543991Y-10718389D02*
X7534467Y-10737436D01*
X7534467Y-10737436D02*
X7524943Y-10746960D01*
X7524943Y-10746960D02*
X7505896Y-10756484D01*
X7505896Y-10756484D02*
X7467801Y-10756484D01*
X7467801Y-10756484D02*
X7448753Y-10746960D01*
X7629705Y-10737436D02*
X7639229Y-10746960D01*
X7639229Y-10746960D02*
X7629705Y-10756484D01*
X7629705Y-10756484D02*
X7620182Y-10746960D01*
X7620182Y-10746960D02*
X7629705Y-10737436D01*
X7629705Y-10737436D02*
X7629705Y-10756484D01*
X7629705Y-10632674D02*
X7639229Y-10642198D01*
X7639229Y-10642198D02*
X7629705Y-10651722D01*
X7629705Y-10651722D02*
X7620182Y-10642198D01*
X7620182Y-10642198D02*
X7629705Y-10632674D01*
X7629705Y-10632674D02*
X7629705Y-10651722D01*
D12*
X5967500Y-11070000D02*
X5997500Y-11100000D01*
X5997500Y-11070000D02*
X5967500Y-11100000D01*
D11*
X6296372Y-10976484D02*
X6315420Y-10976484D01*
X6315420Y-10976484D02*
X6334467Y-10986008D01*
X6334467Y-10986008D02*
X6343991Y-10995531D01*
X6343991Y-10995531D02*
X6353515Y-11014579D01*
X6353515Y-11014579D02*
X6363039Y-11052674D01*
X6363039Y-11052674D02*
X6363039Y-11100293D01*
X6363039Y-11100293D02*
X6353515Y-11138389D01*
X6353515Y-11138389D02*
X6343991Y-11157436D01*
X6343991Y-11157436D02*
X6334467Y-11166960D01*
X6334467Y-11166960D02*
X6315420Y-11176484D01*
X6315420Y-11176484D02*
X6296372Y-11176484D01*
X6296372Y-11176484D02*
X6277324Y-11166960D01*
X6277324Y-11166960D02*
X6267801Y-11157436D01*
X6267801Y-11157436D02*
X6258277Y-11138389D01*
X6258277Y-11138389D02*
X6248753Y-11100293D01*
X6248753Y-11100293D02*
X6248753Y-11052674D01*
X6248753Y-11052674D02*
X6258277Y-11014579D01*
X6258277Y-11014579D02*
X6267801Y-10995531D01*
X6267801Y-10995531D02*
X6277324Y-10986008D01*
X6277324Y-10986008D02*
X6296372Y-10976484D01*
X6448753Y-11157436D02*
X6458277Y-11166960D01*
X6458277Y-11166960D02*
X6448753Y-11176484D01*
X6448753Y-11176484D02*
X6439229Y-11166960D01*
X6439229Y-11166960D02*
X6448753Y-11157436D01*
X6448753Y-11157436D02*
X6448753Y-11176484D01*
X6524943Y-10976484D02*
X6648753Y-10976484D01*
X6648753Y-10976484D02*
X6582086Y-11052674D01*
X6582086Y-11052674D02*
X6610658Y-11052674D01*
X6610658Y-11052674D02*
X6629705Y-11062198D01*
X6629705Y-11062198D02*
X6639229Y-11071722D01*
X6639229Y-11071722D02*
X6648753Y-11090770D01*
X6648753Y-11090770D02*
X6648753Y-11138389D01*
X6648753Y-11138389D02*
X6639229Y-11157436D01*
X6639229Y-11157436D02*
X6629705Y-11166960D01*
X6629705Y-11166960D02*
X6610658Y-11176484D01*
X6610658Y-11176484D02*
X6553515Y-11176484D01*
X6553515Y-11176484D02*
X6534467Y-11166960D01*
X6534467Y-11166960D02*
X6524943Y-11157436D01*
X6772562Y-10976484D02*
X6791610Y-10976484D01*
X6791610Y-10976484D02*
X6810658Y-10986008D01*
X6810658Y-10986008D02*
X6820182Y-10995531D01*
X6820182Y-10995531D02*
X6829705Y-11014579D01*
X6829705Y-11014579D02*
X6839229Y-11052674D01*
X6839229Y-11052674D02*
X6839229Y-11100293D01*
X6839229Y-11100293D02*
X6829705Y-11138389D01*
X6829705Y-11138389D02*
X6820182Y-11157436D01*
X6820182Y-11157436D02*
X6810658Y-11166960D01*
X6810658Y-11166960D02*
X6791610Y-11176484D01*
X6791610Y-11176484D02*
X6772562Y-11176484D01*
X6772562Y-11176484D02*
X6753515Y-11166960D01*
X6753515Y-11166960D02*
X6743991Y-11157436D01*
X6743991Y-11157436D02*
X6734467Y-11138389D01*
X6734467Y-11138389D02*
X6724943Y-11100293D01*
X6724943Y-11100293D02*
X6724943Y-11052674D01*
X6724943Y-11052674D02*
X6734467Y-11014579D01*
X6734467Y-11014579D02*
X6743991Y-10995531D01*
X6743991Y-10995531D02*
X6753515Y-10986008D01*
X6753515Y-10986008D02*
X6772562Y-10976484D01*
X6963039Y-10976484D02*
X6982086Y-10976484D01*
X6982086Y-10976484D02*
X7001134Y-10986008D01*
X7001134Y-10986008D02*
X7010658Y-10995531D01*
X7010658Y-10995531D02*
X7020182Y-11014579D01*
X7020182Y-11014579D02*
X7029705Y-11052674D01*
X7029705Y-11052674D02*
X7029705Y-11100293D01*
X7029705Y-11100293D02*
X7020182Y-11138389D01*
X7020182Y-11138389D02*
X7010658Y-11157436D01*
X7010658Y-11157436D02*
X7001134Y-11166960D01*
X7001134Y-11166960D02*
X6982086Y-11176484D01*
X6982086Y-11176484D02*
X6963039Y-11176484D01*
X6963039Y-11176484D02*
X6943991Y-11166960D01*
X6943991Y-11166960D02*
X6934467Y-11157436D01*
X6934467Y-11157436D02*
X6924943Y-11138389D01*
X6924943Y-11138389D02*
X6915420Y-11100293D01*
X6915420Y-11100293D02*
X6915420Y-11052674D01*
X6915420Y-11052674D02*
X6924943Y-11014579D01*
X6924943Y-11014579D02*
X6934467Y-10995531D01*
X6934467Y-10995531D02*
X6943991Y-10986008D01*
X6943991Y-10986008D02*
X6963039Y-10976484D01*
X7115420Y-11176484D02*
X7115420Y-11043150D01*
X7115420Y-11062198D02*
X7124943Y-11052674D01*
X7124943Y-11052674D02*
X7143991Y-11043150D01*
X7143991Y-11043150D02*
X7172563Y-11043150D01*
X7172563Y-11043150D02*
X7191610Y-11052674D01*
X7191610Y-11052674D02*
X7201134Y-11071722D01*
X7201134Y-11071722D02*
X7201134Y-11176484D01*
X7201134Y-11071722D02*
X7210658Y-11052674D01*
X7210658Y-11052674D02*
X7229705Y-11043150D01*
X7229705Y-11043150D02*
X7258277Y-11043150D01*
X7258277Y-11043150D02*
X7277324Y-11052674D01*
X7277324Y-11052674D02*
X7286848Y-11071722D01*
X7286848Y-11071722D02*
X7286848Y-11176484D01*
X7382086Y-11176484D02*
X7382086Y-11043150D01*
X7382086Y-11062198D02*
X7391610Y-11052674D01*
X7391610Y-11052674D02*
X7410658Y-11043150D01*
X7410658Y-11043150D02*
X7439229Y-11043150D01*
X7439229Y-11043150D02*
X7458277Y-11052674D01*
X7458277Y-11052674D02*
X7467801Y-11071722D01*
X7467801Y-11071722D02*
X7467801Y-11176484D01*
X7467801Y-11071722D02*
X7477324Y-11052674D01*
X7477324Y-11052674D02*
X7496372Y-11043150D01*
X7496372Y-11043150D02*
X7524943Y-11043150D01*
X7524943Y-11043150D02*
X7543991Y-11052674D01*
X7543991Y-11052674D02*
X7553515Y-11071722D01*
X7553515Y-11071722D02*
X7553515Y-11176484D01*
X7943991Y-10966960D02*
X7772563Y-11224103D01*
X8201134Y-10976484D02*
X8220182Y-10976484D01*
X8220182Y-10976484D02*
X8239229Y-10986008D01*
X8239229Y-10986008D02*
X8248753Y-10995531D01*
X8248753Y-10995531D02*
X8258277Y-11014579D01*
X8258277Y-11014579D02*
X8267801Y-11052674D01*
X8267801Y-11052674D02*
X8267801Y-11100293D01*
X8267801Y-11100293D02*
X8258277Y-11138389D01*
X8258277Y-11138389D02*
X8248753Y-11157436D01*
X8248753Y-11157436D02*
X8239229Y-11166960D01*
X8239229Y-11166960D02*
X8220182Y-11176484D01*
X8220182Y-11176484D02*
X8201134Y-11176484D01*
X8201134Y-11176484D02*
X8182086Y-11166960D01*
X8182086Y-11166960D02*
X8172563Y-11157436D01*
X8172563Y-11157436D02*
X8163039Y-11138389D01*
X8163039Y-11138389D02*
X8153515Y-11100293D01*
X8153515Y-11100293D02*
X8153515Y-11052674D01*
X8153515Y-11052674D02*
X8163039Y-11014579D01*
X8163039Y-11014579D02*
X8172563Y-10995531D01*
X8172563Y-10995531D02*
X8182086Y-10986008D01*
X8182086Y-10986008D02*
X8201134Y-10976484D01*
X8353515Y-11157436D02*
X8363039Y-11166960D01*
X8363039Y-11166960D02*
X8353515Y-11176484D01*
X8353515Y-11176484D02*
X8343991Y-11166960D01*
X8343991Y-11166960D02*
X8353515Y-11157436D01*
X8353515Y-11157436D02*
X8353515Y-11176484D01*
X8486848Y-10976484D02*
X8505896Y-10976484D01*
X8505896Y-10976484D02*
X8524944Y-10986008D01*
X8524944Y-10986008D02*
X8534468Y-10995531D01*
X8534468Y-10995531D02*
X8543991Y-11014579D01*
X8543991Y-11014579D02*
X8553515Y-11052674D01*
X8553515Y-11052674D02*
X8553515Y-11100293D01*
X8553515Y-11100293D02*
X8543991Y-11138389D01*
X8543991Y-11138389D02*
X8534468Y-11157436D01*
X8534468Y-11157436D02*
X8524944Y-11166960D01*
X8524944Y-11166960D02*
X8505896Y-11176484D01*
X8505896Y-11176484D02*
X8486848Y-11176484D01*
X8486848Y-11176484D02*
X8467801Y-11166960D01*
X8467801Y-11166960D02*
X8458277Y-11157436D01*
X8458277Y-11157436D02*
X8448753Y-11138389D01*
X8448753Y-11138389D02*
X8439229Y-11100293D01*
X8439229Y-11100293D02*
X8439229Y-11052674D01*
X8439229Y-11052674D02*
X8448753Y-11014579D01*
X8448753Y-11014579D02*
X8458277Y-10995531D01*
X8458277Y-10995531D02*
X8467801Y-10986008D01*
X8467801Y-10986008D02*
X8486848Y-10976484D01*
X8743991Y-11176484D02*
X8629706Y-11176484D01*
X8686848Y-11176484D02*
X8686848Y-10976484D01*
X8686848Y-10976484D02*
X8667801Y-11005055D01*
X8667801Y-11005055D02*
X8648753Y-11024103D01*
X8648753Y-11024103D02*
X8629706Y-11033627D01*
X8934468Y-11176484D02*
X8820182Y-11176484D01*
X8877325Y-11176484D02*
X8877325Y-10976484D01*
X8877325Y-10976484D02*
X8858277Y-11005055D01*
X8858277Y-11005055D02*
X8839229Y-11024103D01*
X8839229Y-11024103D02*
X8820182Y-11033627D01*
X9048753Y-11062198D02*
X9029706Y-11052674D01*
X9029706Y-11052674D02*
X9020182Y-11043150D01*
X9020182Y-11043150D02*
X9010658Y-11024103D01*
X9010658Y-11024103D02*
X9010658Y-11014579D01*
X9010658Y-11014579D02*
X9020182Y-10995531D01*
X9020182Y-10995531D02*
X9029706Y-10986008D01*
X9029706Y-10986008D02*
X9048753Y-10976484D01*
X9048753Y-10976484D02*
X9086849Y-10976484D01*
X9086849Y-10976484D02*
X9105896Y-10986008D01*
X9105896Y-10986008D02*
X9115420Y-10995531D01*
X9115420Y-10995531D02*
X9124944Y-11014579D01*
X9124944Y-11014579D02*
X9124944Y-11024103D01*
X9124944Y-11024103D02*
X9115420Y-11043150D01*
X9115420Y-11043150D02*
X9105896Y-11052674D01*
X9105896Y-11052674D02*
X9086849Y-11062198D01*
X9086849Y-11062198D02*
X9048753Y-11062198D01*
X9048753Y-11062198D02*
X9029706Y-11071722D01*
X9029706Y-11071722D02*
X9020182Y-11081246D01*
X9020182Y-11081246D02*
X9010658Y-11100293D01*
X9010658Y-11100293D02*
X9010658Y-11138389D01*
X9010658Y-11138389D02*
X9020182Y-11157436D01*
X9020182Y-11157436D02*
X9029706Y-11166960D01*
X9029706Y-11166960D02*
X9048753Y-11176484D01*
X9048753Y-11176484D02*
X9086849Y-11176484D01*
X9086849Y-11176484D02*
X9105896Y-11166960D01*
X9105896Y-11166960D02*
X9115420Y-11157436D01*
X9115420Y-11157436D02*
X9124944Y-11138389D01*
X9124944Y-11138389D02*
X9124944Y-11100293D01*
X9124944Y-11100293D02*
X9115420Y-11081246D01*
X9115420Y-11081246D02*
X9105896Y-11071722D01*
X9105896Y-11071722D02*
X9086849Y-11062198D01*
X9201134Y-10976484D02*
X9201134Y-11014579D01*
X9277325Y-10976484D02*
X9277325Y-11014579D01*
X9572563Y-11252674D02*
X9563039Y-11243150D01*
X9563039Y-11243150D02*
X9543991Y-11214579D01*
X9543991Y-11214579D02*
X9534468Y-11195531D01*
X9534468Y-11195531D02*
X9524944Y-11166960D01*
X9524944Y-11166960D02*
X9515420Y-11119341D01*
X9515420Y-11119341D02*
X9515420Y-11081246D01*
X9515420Y-11081246D02*
X9524944Y-11033627D01*
X9524944Y-11033627D02*
X9534468Y-11005055D01*
X9534468Y-11005055D02*
X9543991Y-10986008D01*
X9543991Y-10986008D02*
X9563039Y-10957436D01*
X9563039Y-10957436D02*
X9572563Y-10947912D01*
X9658277Y-11176484D02*
X9696372Y-11176484D01*
X9696372Y-11176484D02*
X9715420Y-11166960D01*
X9715420Y-11166960D02*
X9724944Y-11157436D01*
X9724944Y-11157436D02*
X9743991Y-11128865D01*
X9743991Y-11128865D02*
X9753515Y-11090770D01*
X9753515Y-11090770D02*
X9753515Y-11014579D01*
X9753515Y-11014579D02*
X9743991Y-10995531D01*
X9743991Y-10995531D02*
X9734468Y-10986008D01*
X9734468Y-10986008D02*
X9715420Y-10976484D01*
X9715420Y-10976484D02*
X9677325Y-10976484D01*
X9677325Y-10976484D02*
X9658277Y-10986008D01*
X9658277Y-10986008D02*
X9648753Y-10995531D01*
X9648753Y-10995531D02*
X9639230Y-11014579D01*
X9639230Y-11014579D02*
X9639230Y-11062198D01*
X9639230Y-11062198D02*
X9648753Y-11081246D01*
X9648753Y-11081246D02*
X9658277Y-11090770D01*
X9658277Y-11090770D02*
X9677325Y-11100293D01*
X9677325Y-11100293D02*
X9715420Y-11100293D01*
X9715420Y-11100293D02*
X9734468Y-11090770D01*
X9734468Y-11090770D02*
X9743991Y-11081246D01*
X9743991Y-11081246D02*
X9753515Y-11062198D01*
X9991611Y-11176484D02*
X9991611Y-10976484D01*
X10077325Y-11176484D02*
X10077325Y-11071722D01*
X10077325Y-11071722D02*
X10067801Y-11052674D01*
X10067801Y-11052674D02*
X10048753Y-11043150D01*
X10048753Y-11043150D02*
X10020182Y-11043150D01*
X10020182Y-11043150D02*
X10001134Y-11052674D01*
X10001134Y-11052674D02*
X9991611Y-11062198D01*
X10201134Y-11176484D02*
X10182087Y-11166960D01*
X10182087Y-11166960D02*
X10172563Y-11157436D01*
X10172563Y-11157436D02*
X10163039Y-11138389D01*
X10163039Y-11138389D02*
X10163039Y-11081246D01*
X10163039Y-11081246D02*
X10172563Y-11062198D01*
X10172563Y-11062198D02*
X10182087Y-11052674D01*
X10182087Y-11052674D02*
X10201134Y-11043150D01*
X10201134Y-11043150D02*
X10229706Y-11043150D01*
X10229706Y-11043150D02*
X10248753Y-11052674D01*
X10248753Y-11052674D02*
X10258277Y-11062198D01*
X10258277Y-11062198D02*
X10267801Y-11081246D01*
X10267801Y-11081246D02*
X10267801Y-11138389D01*
X10267801Y-11138389D02*
X10258277Y-11157436D01*
X10258277Y-11157436D02*
X10248753Y-11166960D01*
X10248753Y-11166960D02*
X10229706Y-11176484D01*
X10229706Y-11176484D02*
X10201134Y-11176484D01*
X10382087Y-11176484D02*
X10363039Y-11166960D01*
X10363039Y-11166960D02*
X10353515Y-11147912D01*
X10353515Y-11147912D02*
X10353515Y-10976484D01*
X10534468Y-11166960D02*
X10515420Y-11176484D01*
X10515420Y-11176484D02*
X10477325Y-11176484D01*
X10477325Y-11176484D02*
X10458277Y-11166960D01*
X10458277Y-11166960D02*
X10448753Y-11147912D01*
X10448753Y-11147912D02*
X10448753Y-11071722D01*
X10448753Y-11071722D02*
X10458277Y-11052674D01*
X10458277Y-11052674D02*
X10477325Y-11043150D01*
X10477325Y-11043150D02*
X10515420Y-11043150D01*
X10515420Y-11043150D02*
X10534468Y-11052674D01*
X10534468Y-11052674D02*
X10543992Y-11071722D01*
X10543992Y-11071722D02*
X10543992Y-11090770D01*
X10543992Y-11090770D02*
X10448753Y-11109817D01*
X10620182Y-11166960D02*
X10639230Y-11176484D01*
X10639230Y-11176484D02*
X10677325Y-11176484D01*
X10677325Y-11176484D02*
X10696373Y-11166960D01*
X10696373Y-11166960D02*
X10705896Y-11147912D01*
X10705896Y-11147912D02*
X10705896Y-11138389D01*
X10705896Y-11138389D02*
X10696373Y-11119341D01*
X10696373Y-11119341D02*
X10677325Y-11109817D01*
X10677325Y-11109817D02*
X10648753Y-11109817D01*
X10648753Y-11109817D02*
X10629706Y-11100293D01*
X10629706Y-11100293D02*
X10620182Y-11081246D01*
X10620182Y-11081246D02*
X10620182Y-11071722D01*
X10620182Y-11071722D02*
X10629706Y-11052674D01*
X10629706Y-11052674D02*
X10648753Y-11043150D01*
X10648753Y-11043150D02*
X10677325Y-11043150D01*
X10677325Y-11043150D02*
X10696373Y-11052674D01*
X10772563Y-11252674D02*
X10782087Y-11243150D01*
X10782087Y-11243150D02*
X10801134Y-11214579D01*
X10801134Y-11214579D02*
X10810658Y-11195531D01*
X10810658Y-11195531D02*
X10820182Y-11166960D01*
X10820182Y-11166960D02*
X10829706Y-11119341D01*
X10829706Y-11119341D02*
X10829706Y-11081246D01*
X10829706Y-11081246D02*
X10820182Y-11033627D01*
X10820182Y-11033627D02*
X10810658Y-11005055D01*
X10810658Y-11005055D02*
X10801134Y-10986008D01*
X10801134Y-10986008D02*
X10782087Y-10957436D01*
X10782087Y-10957436D02*
X10772563Y-10947912D01*
D12*
X5997500Y-11349000D02*
G75*
G02*
X5897500Y-11349000I-50000J0D01*
G01*
X5897500Y-11349000D02*
G75*
G02*
X5997500Y-11349000I50000J0D01*
G01*
D11*
X6363039Y-11440484D02*
X6248753Y-11440484D01*
X6305896Y-11440484D02*
X6305896Y-11240484D01*
X6305896Y-11240484D02*
X6286848Y-11269055D01*
X6286848Y-11269055D02*
X6267801Y-11288103D01*
X6267801Y-11288103D02*
X6248753Y-11297627D01*
X6448753Y-11421436D02*
X6458277Y-11430960D01*
X6458277Y-11430960D02*
X6448753Y-11440484D01*
X6448753Y-11440484D02*
X6439229Y-11430960D01*
X6439229Y-11430960D02*
X6448753Y-11421436D01*
X6448753Y-11421436D02*
X6448753Y-11440484D01*
X6582086Y-11240484D02*
X6601134Y-11240484D01*
X6601134Y-11240484D02*
X6620182Y-11250008D01*
X6620182Y-11250008D02*
X6629705Y-11259531D01*
X6629705Y-11259531D02*
X6639229Y-11278579D01*
X6639229Y-11278579D02*
X6648753Y-11316674D01*
X6648753Y-11316674D02*
X6648753Y-11364293D01*
X6648753Y-11364293D02*
X6639229Y-11402388D01*
X6639229Y-11402388D02*
X6629705Y-11421436D01*
X6629705Y-11421436D02*
X6620182Y-11430960D01*
X6620182Y-11430960D02*
X6601134Y-11440484D01*
X6601134Y-11440484D02*
X6582086Y-11440484D01*
X6582086Y-11440484D02*
X6563039Y-11430960D01*
X6563039Y-11430960D02*
X6553515Y-11421436D01*
X6553515Y-11421436D02*
X6543991Y-11402388D01*
X6543991Y-11402388D02*
X6534467Y-11364293D01*
X6534467Y-11364293D02*
X6534467Y-11316674D01*
X6534467Y-11316674D02*
X6543991Y-11278579D01*
X6543991Y-11278579D02*
X6553515Y-11259531D01*
X6553515Y-11259531D02*
X6563039Y-11250008D01*
X6563039Y-11250008D02*
X6582086Y-11240484D01*
X6772562Y-11240484D02*
X6791610Y-11240484D01*
X6791610Y-11240484D02*
X6810658Y-11250008D01*
X6810658Y-11250008D02*
X6820182Y-11259531D01*
X6820182Y-11259531D02*
X6829705Y-11278579D01*
X6829705Y-11278579D02*
X6839229Y-11316674D01*
X6839229Y-11316674D02*
X6839229Y-11364293D01*
X6839229Y-11364293D02*
X6829705Y-11402388D01*
X6829705Y-11402388D02*
X6820182Y-11421436D01*
X6820182Y-11421436D02*
X6810658Y-11430960D01*
X6810658Y-11430960D02*
X6791610Y-11440484D01*
X6791610Y-11440484D02*
X6772562Y-11440484D01*
X6772562Y-11440484D02*
X6753515Y-11430960D01*
X6753515Y-11430960D02*
X6743991Y-11421436D01*
X6743991Y-11421436D02*
X6734467Y-11402388D01*
X6734467Y-11402388D02*
X6724943Y-11364293D01*
X6724943Y-11364293D02*
X6724943Y-11316674D01*
X6724943Y-11316674D02*
X6734467Y-11278579D01*
X6734467Y-11278579D02*
X6743991Y-11259531D01*
X6743991Y-11259531D02*
X6753515Y-11250008D01*
X6753515Y-11250008D02*
X6772562Y-11240484D01*
X6963039Y-11240484D02*
X6982086Y-11240484D01*
X6982086Y-11240484D02*
X7001134Y-11250008D01*
X7001134Y-11250008D02*
X7010658Y-11259531D01*
X7010658Y-11259531D02*
X7020182Y-11278579D01*
X7020182Y-11278579D02*
X7029705Y-11316674D01*
X7029705Y-11316674D02*
X7029705Y-11364293D01*
X7029705Y-11364293D02*
X7020182Y-11402388D01*
X7020182Y-11402388D02*
X7010658Y-11421436D01*
X7010658Y-11421436D02*
X7001134Y-11430960D01*
X7001134Y-11430960D02*
X6982086Y-11440484D01*
X6982086Y-11440484D02*
X6963039Y-11440484D01*
X6963039Y-11440484D02*
X6943991Y-11430960D01*
X6943991Y-11430960D02*
X6934467Y-11421436D01*
X6934467Y-11421436D02*
X6924943Y-11402388D01*
X6924943Y-11402388D02*
X6915420Y-11364293D01*
X6915420Y-11364293D02*
X6915420Y-11316674D01*
X6915420Y-11316674D02*
X6924943Y-11278579D01*
X6924943Y-11278579D02*
X6934467Y-11259531D01*
X6934467Y-11259531D02*
X6943991Y-11250008D01*
X6943991Y-11250008D02*
X6963039Y-11240484D01*
X7115420Y-11440484D02*
X7115420Y-11307150D01*
X7115420Y-11326198D02*
X7124943Y-11316674D01*
X7124943Y-11316674D02*
X7143991Y-11307150D01*
X7143991Y-11307150D02*
X7172563Y-11307150D01*
X7172563Y-11307150D02*
X7191610Y-11316674D01*
X7191610Y-11316674D02*
X7201134Y-11335722D01*
X7201134Y-11335722D02*
X7201134Y-11440484D01*
X7201134Y-11335722D02*
X7210658Y-11316674D01*
X7210658Y-11316674D02*
X7229705Y-11307150D01*
X7229705Y-11307150D02*
X7258277Y-11307150D01*
X7258277Y-11307150D02*
X7277324Y-11316674D01*
X7277324Y-11316674D02*
X7286848Y-11335722D01*
X7286848Y-11335722D02*
X7286848Y-11440484D01*
X7382086Y-11440484D02*
X7382086Y-11307150D01*
X7382086Y-11326198D02*
X7391610Y-11316674D01*
X7391610Y-11316674D02*
X7410658Y-11307150D01*
X7410658Y-11307150D02*
X7439229Y-11307150D01*
X7439229Y-11307150D02*
X7458277Y-11316674D01*
X7458277Y-11316674D02*
X7467801Y-11335722D01*
X7467801Y-11335722D02*
X7467801Y-11440484D01*
X7467801Y-11335722D02*
X7477324Y-11316674D01*
X7477324Y-11316674D02*
X7496372Y-11307150D01*
X7496372Y-11307150D02*
X7524943Y-11307150D01*
X7524943Y-11307150D02*
X7543991Y-11316674D01*
X7543991Y-11316674D02*
X7553515Y-11335722D01*
X7553515Y-11335722D02*
X7553515Y-11440484D01*
X7943991Y-11230960D02*
X7772563Y-11488103D01*
X8201134Y-11240484D02*
X8220182Y-11240484D01*
X8220182Y-11240484D02*
X8239229Y-11250008D01*
X8239229Y-11250008D02*
X8248753Y-11259531D01*
X8248753Y-11259531D02*
X8258277Y-11278579D01*
X8258277Y-11278579D02*
X8267801Y-11316674D01*
X8267801Y-11316674D02*
X8267801Y-11364293D01*
X8267801Y-11364293D02*
X8258277Y-11402388D01*
X8258277Y-11402388D02*
X8248753Y-11421436D01*
X8248753Y-11421436D02*
X8239229Y-11430960D01*
X8239229Y-11430960D02*
X8220182Y-11440484D01*
X8220182Y-11440484D02*
X8201134Y-11440484D01*
X8201134Y-11440484D02*
X8182086Y-11430960D01*
X8182086Y-11430960D02*
X8172563Y-11421436D01*
X8172563Y-11421436D02*
X8163039Y-11402388D01*
X8163039Y-11402388D02*
X8153515Y-11364293D01*
X8153515Y-11364293D02*
X8153515Y-11316674D01*
X8153515Y-11316674D02*
X8163039Y-11278579D01*
X8163039Y-11278579D02*
X8172563Y-11259531D01*
X8172563Y-11259531D02*
X8182086Y-11250008D01*
X8182086Y-11250008D02*
X8201134Y-11240484D01*
X8353515Y-11421436D02*
X8363039Y-11430960D01*
X8363039Y-11430960D02*
X8353515Y-11440484D01*
X8353515Y-11440484D02*
X8343991Y-11430960D01*
X8343991Y-11430960D02*
X8353515Y-11421436D01*
X8353515Y-11421436D02*
X8353515Y-11440484D01*
X8486848Y-11240484D02*
X8505896Y-11240484D01*
X8505896Y-11240484D02*
X8524944Y-11250008D01*
X8524944Y-11250008D02*
X8534468Y-11259531D01*
X8534468Y-11259531D02*
X8543991Y-11278579D01*
X8543991Y-11278579D02*
X8553515Y-11316674D01*
X8553515Y-11316674D02*
X8553515Y-11364293D01*
X8553515Y-11364293D02*
X8543991Y-11402388D01*
X8543991Y-11402388D02*
X8534468Y-11421436D01*
X8534468Y-11421436D02*
X8524944Y-11430960D01*
X8524944Y-11430960D02*
X8505896Y-11440484D01*
X8505896Y-11440484D02*
X8486848Y-11440484D01*
X8486848Y-11440484D02*
X8467801Y-11430960D01*
X8467801Y-11430960D02*
X8458277Y-11421436D01*
X8458277Y-11421436D02*
X8448753Y-11402388D01*
X8448753Y-11402388D02*
X8439229Y-11364293D01*
X8439229Y-11364293D02*
X8439229Y-11316674D01*
X8439229Y-11316674D02*
X8448753Y-11278579D01*
X8448753Y-11278579D02*
X8458277Y-11259531D01*
X8458277Y-11259531D02*
X8467801Y-11250008D01*
X8467801Y-11250008D02*
X8486848Y-11240484D01*
X8620182Y-11240484D02*
X8743991Y-11240484D01*
X8743991Y-11240484D02*
X8677325Y-11316674D01*
X8677325Y-11316674D02*
X8705896Y-11316674D01*
X8705896Y-11316674D02*
X8724944Y-11326198D01*
X8724944Y-11326198D02*
X8734468Y-11335722D01*
X8734468Y-11335722D02*
X8743991Y-11354769D01*
X8743991Y-11354769D02*
X8743991Y-11402388D01*
X8743991Y-11402388D02*
X8734468Y-11421436D01*
X8734468Y-11421436D02*
X8724944Y-11430960D01*
X8724944Y-11430960D02*
X8705896Y-11440484D01*
X8705896Y-11440484D02*
X8648753Y-11440484D01*
X8648753Y-11440484D02*
X8629706Y-11430960D01*
X8629706Y-11430960D02*
X8620182Y-11421436D01*
X8839229Y-11440484D02*
X8877325Y-11440484D01*
X8877325Y-11440484D02*
X8896372Y-11430960D01*
X8896372Y-11430960D02*
X8905896Y-11421436D01*
X8905896Y-11421436D02*
X8924944Y-11392865D01*
X8924944Y-11392865D02*
X8934468Y-11354769D01*
X8934468Y-11354769D02*
X8934468Y-11278579D01*
X8934468Y-11278579D02*
X8924944Y-11259531D01*
X8924944Y-11259531D02*
X8915420Y-11250008D01*
X8915420Y-11250008D02*
X8896372Y-11240484D01*
X8896372Y-11240484D02*
X8858277Y-11240484D01*
X8858277Y-11240484D02*
X8839229Y-11250008D01*
X8839229Y-11250008D02*
X8829706Y-11259531D01*
X8829706Y-11259531D02*
X8820182Y-11278579D01*
X8820182Y-11278579D02*
X8820182Y-11326198D01*
X8820182Y-11326198D02*
X8829706Y-11345246D01*
X8829706Y-11345246D02*
X8839229Y-11354769D01*
X8839229Y-11354769D02*
X8858277Y-11364293D01*
X8858277Y-11364293D02*
X8896372Y-11364293D01*
X8896372Y-11364293D02*
X8915420Y-11354769D01*
X8915420Y-11354769D02*
X8924944Y-11345246D01*
X8924944Y-11345246D02*
X8934468Y-11326198D01*
X9105896Y-11307150D02*
X9105896Y-11440484D01*
X9058277Y-11230960D02*
X9010658Y-11373817D01*
X9010658Y-11373817D02*
X9134468Y-11373817D01*
X9201134Y-11240484D02*
X9201134Y-11278579D01*
X9277325Y-11240484D02*
X9277325Y-11278579D01*
X9572563Y-11516674D02*
X9563039Y-11507150D01*
X9563039Y-11507150D02*
X9543991Y-11478579D01*
X9543991Y-11478579D02*
X9534468Y-11459531D01*
X9534468Y-11459531D02*
X9524944Y-11430960D01*
X9524944Y-11430960D02*
X9515420Y-11383341D01*
X9515420Y-11383341D02*
X9515420Y-11345246D01*
X9515420Y-11345246D02*
X9524944Y-11297627D01*
X9524944Y-11297627D02*
X9534468Y-11269055D01*
X9534468Y-11269055D02*
X9543991Y-11250008D01*
X9543991Y-11250008D02*
X9563039Y-11221436D01*
X9563039Y-11221436D02*
X9572563Y-11211912D01*
X9677325Y-11326198D02*
X9658277Y-11316674D01*
X9658277Y-11316674D02*
X9648753Y-11307150D01*
X9648753Y-11307150D02*
X9639230Y-11288103D01*
X9639230Y-11288103D02*
X9639230Y-11278579D01*
X9639230Y-11278579D02*
X9648753Y-11259531D01*
X9648753Y-11259531D02*
X9658277Y-11250008D01*
X9658277Y-11250008D02*
X9677325Y-11240484D01*
X9677325Y-11240484D02*
X9715420Y-11240484D01*
X9715420Y-11240484D02*
X9734468Y-11250008D01*
X9734468Y-11250008D02*
X9743991Y-11259531D01*
X9743991Y-11259531D02*
X9753515Y-11278579D01*
X9753515Y-11278579D02*
X9753515Y-11288103D01*
X9753515Y-11288103D02*
X9743991Y-11307150D01*
X9743991Y-11307150D02*
X9734468Y-11316674D01*
X9734468Y-11316674D02*
X9715420Y-11326198D01*
X9715420Y-11326198D02*
X9677325Y-11326198D01*
X9677325Y-11326198D02*
X9658277Y-11335722D01*
X9658277Y-11335722D02*
X9648753Y-11345246D01*
X9648753Y-11345246D02*
X9639230Y-11364293D01*
X9639230Y-11364293D02*
X9639230Y-11402388D01*
X9639230Y-11402388D02*
X9648753Y-11421436D01*
X9648753Y-11421436D02*
X9658277Y-11430960D01*
X9658277Y-11430960D02*
X9677325Y-11440484D01*
X9677325Y-11440484D02*
X9715420Y-11440484D01*
X9715420Y-11440484D02*
X9734468Y-11430960D01*
X9734468Y-11430960D02*
X9743991Y-11421436D01*
X9743991Y-11421436D02*
X9753515Y-11402388D01*
X9753515Y-11402388D02*
X9753515Y-11364293D01*
X9753515Y-11364293D02*
X9743991Y-11345246D01*
X9743991Y-11345246D02*
X9734468Y-11335722D01*
X9734468Y-11335722D02*
X9715420Y-11326198D01*
X9991611Y-11440484D02*
X9991611Y-11240484D01*
X10077325Y-11440484D02*
X10077325Y-11335722D01*
X10077325Y-11335722D02*
X10067801Y-11316674D01*
X10067801Y-11316674D02*
X10048753Y-11307150D01*
X10048753Y-11307150D02*
X10020182Y-11307150D01*
X10020182Y-11307150D02*
X10001134Y-11316674D01*
X10001134Y-11316674D02*
X9991611Y-11326198D01*
X10201134Y-11440484D02*
X10182087Y-11430960D01*
X10182087Y-11430960D02*
X10172563Y-11421436D01*
X10172563Y-11421436D02*
X10163039Y-11402388D01*
X10163039Y-11402388D02*
X10163039Y-11345246D01*
X10163039Y-11345246D02*
X10172563Y-11326198D01*
X10172563Y-11326198D02*
X10182087Y-11316674D01*
X10182087Y-11316674D02*
X10201134Y-11307150D01*
X10201134Y-11307150D02*
X10229706Y-11307150D01*
X10229706Y-11307150D02*
X10248753Y-11316674D01*
X10248753Y-11316674D02*
X10258277Y-11326198D01*
X10258277Y-11326198D02*
X10267801Y-11345246D01*
X10267801Y-11345246D02*
X10267801Y-11402388D01*
X10267801Y-11402388D02*
X10258277Y-11421436D01*
X10258277Y-11421436D02*
X10248753Y-11430960D01*
X10248753Y-11430960D02*
X10229706Y-11440484D01*
X10229706Y-11440484D02*
X10201134Y-11440484D01*
X10382087Y-11440484D02*
X10363039Y-11430960D01*
X10363039Y-11430960D02*
X10353515Y-11411912D01*
X10353515Y-11411912D02*
X10353515Y-11240484D01*
X10534468Y-11430960D02*
X10515420Y-11440484D01*
X10515420Y-11440484D02*
X10477325Y-11440484D01*
X10477325Y-11440484D02*
X10458277Y-11430960D01*
X10458277Y-11430960D02*
X10448753Y-11411912D01*
X10448753Y-11411912D02*
X10448753Y-11335722D01*
X10448753Y-11335722D02*
X10458277Y-11316674D01*
X10458277Y-11316674D02*
X10477325Y-11307150D01*
X10477325Y-11307150D02*
X10515420Y-11307150D01*
X10515420Y-11307150D02*
X10534468Y-11316674D01*
X10534468Y-11316674D02*
X10543992Y-11335722D01*
X10543992Y-11335722D02*
X10543992Y-11354769D01*
X10543992Y-11354769D02*
X10448753Y-11373817D01*
X10620182Y-11430960D02*
X10639230Y-11440484D01*
X10639230Y-11440484D02*
X10677325Y-11440484D01*
X10677325Y-11440484D02*
X10696373Y-11430960D01*
X10696373Y-11430960D02*
X10705896Y-11411912D01*
X10705896Y-11411912D02*
X10705896Y-11402388D01*
X10705896Y-11402388D02*
X10696373Y-11383341D01*
X10696373Y-11383341D02*
X10677325Y-11373817D01*
X10677325Y-11373817D02*
X10648753Y-11373817D01*
X10648753Y-11373817D02*
X10629706Y-11364293D01*
X10629706Y-11364293D02*
X10620182Y-11345246D01*
X10620182Y-11345246D02*
X10620182Y-11335722D01*
X10620182Y-11335722D02*
X10629706Y-11316674D01*
X10629706Y-11316674D02*
X10648753Y-11307150D01*
X10648753Y-11307150D02*
X10677325Y-11307150D01*
X10677325Y-11307150D02*
X10696373Y-11316674D01*
X10772563Y-11516674D02*
X10782087Y-11507150D01*
X10782087Y-11507150D02*
X10801134Y-11478579D01*
X10801134Y-11478579D02*
X10810658Y-11459531D01*
X10810658Y-11459531D02*
X10820182Y-11430960D01*
X10820182Y-11430960D02*
X10829706Y-11383341D01*
X10829706Y-11383341D02*
X10829706Y-11345246D01*
X10829706Y-11345246D02*
X10820182Y-11297627D01*
X10820182Y-11297627D02*
X10810658Y-11269055D01*
X10810658Y-11269055D02*
X10801134Y-11250008D01*
X10801134Y-11250008D02*
X10782087Y-11221436D01*
X10782087Y-11221436D02*
X10772563Y-11211912D01*
M02*
