%TF.GenerationSoftware,KiCad,Pcbnew,8.0.3*%
%TF.CreationDate,2024-06-23T18:33:08+02:00*%
%TF.ProjectId,MAX17262-breakout,4d415831-3732-4363-922d-627265616b6f,rev?*%
%TF.SameCoordinates,Original*%
%TF.FileFunction,Legend,Top*%
%TF.FilePolarity,Positive*%
%FSLAX46Y46*%
G04 Gerber Fmt 4.6, Leading zero omitted, Abs format (unit mm)*
G04 Created by KiCad (PCBNEW 8.0.3) date 2024-06-23 18:33:08*
%MOMM*%
%LPD*%
G01*
G04 APERTURE LIST*
%ADD10C,0.100000*%
%ADD11C,0.150000*%
%ADD12C,0.300000*%
%ADD13C,0.125000*%
%ADD14C,0.200000*%
%ADD15C,0.187500*%
%ADD16C,0.254000*%
%ADD17C,0.120000*%
G04 APERTURE END LIST*
D10*
X114432124Y-85802517D02*
X113949767Y-85810680D01*
X92551674Y-92750000D02*
X92551383Y-91650000D01*
X92551277Y-91250000D02*
X92550986Y-90150000D01*
X92550881Y-89750000D02*
X92550590Y-88650000D01*
X92550484Y-88250000D02*
X92550193Y-87150000D01*
X92550087Y-86750000D02*
X92549955Y-86250000D01*
X71000000Y-91500000D02*
X71000000Y-92600000D01*
X71000000Y-93000000D02*
X71000000Y-94100000D01*
X71000000Y-94500000D02*
X71000000Y-95600000D01*
X71000000Y-96000000D02*
X71000000Y-97100000D01*
X71000000Y-97500000D02*
X71000000Y-98600000D01*
X71000000Y-99000000D02*
X71000000Y-100100000D01*
X71000000Y-100500000D02*
X71000000Y-100500000D01*
X88500000Y-97000000D02*
X88500000Y-91500000D01*
X100068335Y-93207611D02*
X98968335Y-93207397D01*
X98568335Y-93207319D02*
X97468335Y-93207105D01*
X97068335Y-93207027D02*
X95968335Y-93206813D01*
X95568335Y-93206735D02*
X94468335Y-93206521D01*
X94068335Y-93206443D02*
X92968335Y-93206229D01*
X92568335Y-93206151D02*
X92558416Y-93206150D01*
X88500000Y-84500000D02*
X102500000Y-84500000D01*
X80500000Y-89000000D02*
X84000000Y-89000000D01*
X80500000Y-89000000D01*
X114430122Y-93207109D02*
X114430410Y-92107109D01*
X114430515Y-91707109D02*
X114430803Y-90607109D01*
X114430908Y-90207109D02*
X114431196Y-89107109D01*
X114431300Y-88707109D02*
X114431588Y-87607109D01*
X114431693Y-87207109D02*
X114431981Y-86107109D01*
X102500000Y-84500000D02*
X104250000Y-84500000D01*
X71000000Y-100500000D02*
X69900000Y-100500000D01*
X69500000Y-100500000D02*
X68500000Y-100500000D01*
X97863592Y-89502033D02*
X97863592Y-90002033D01*
X114018102Y-93207611D02*
X112918102Y-93207611D01*
X112518102Y-93207611D02*
X111418102Y-93207611D01*
X111018102Y-93207611D02*
X109918102Y-93207611D01*
X109518102Y-93207611D02*
X108418102Y-93207611D01*
X108018102Y-93207611D02*
X106918102Y-93207611D01*
X106518102Y-93207611D02*
X105418102Y-93207611D01*
X105018102Y-93207611D02*
X103918102Y-93207611D01*
X103518102Y-93207611D02*
X102418102Y-93207611D01*
X102018102Y-93207611D02*
X100918102Y-93207611D01*
X100518102Y-93207611D02*
X100068335Y-93207611D01*
D11*
X62467430Y-104435058D02*
X118067430Y-104435058D01*
D10*
X103500000Y-89500000D02*
X97863592Y-89502033D01*
X78500000Y-98500000D02*
X78500000Y-98500000D01*
X78900000Y-98500000D02*
X78900000Y-98500000D01*
X79300000Y-98500000D02*
X79300000Y-98500000D01*
X79700000Y-98500000D02*
X79700000Y-98500000D01*
X80100000Y-98500000D02*
X80100000Y-98500000D01*
X80500000Y-98500000D02*
X80500000Y-98500000D01*
X80900000Y-98500000D02*
X80900000Y-98500000D01*
X81300000Y-98500000D02*
X81300000Y-98500000D01*
X81700000Y-98500000D02*
X81700000Y-98500000D01*
X82100000Y-98500000D02*
X82100000Y-98500000D01*
X82500000Y-98500000D02*
X82500000Y-98500000D01*
X82900000Y-98500000D02*
X82900000Y-98500000D01*
X83300000Y-98500000D02*
X83300000Y-98500000D01*
X83700000Y-98500000D02*
X83700000Y-98500000D01*
X84100000Y-98500000D02*
X84100000Y-98500000D01*
X84500000Y-98500000D02*
X84500000Y-98500000D01*
X84900000Y-98500000D02*
X84900000Y-98500000D01*
X85300000Y-98500000D02*
X85300000Y-98500000D01*
X85700000Y-98500000D02*
X85700000Y-98500000D01*
X86100000Y-98500000D02*
X86100000Y-98500000D01*
X86500000Y-98500000D02*
X86500000Y-98500000D01*
X86900000Y-98500000D02*
X86900000Y-98500000D01*
X87300000Y-98500000D02*
X87300000Y-98500000D01*
X87700000Y-98500000D02*
X87700000Y-98500000D01*
X88100000Y-98500000D02*
X88100000Y-98500000D01*
X88500000Y-98500000D02*
X88500000Y-98500000D01*
X88900000Y-98500000D02*
X88900000Y-98500000D01*
X89300000Y-98500000D02*
X89300000Y-98500000D01*
X89700000Y-98500000D02*
X89700000Y-98500000D01*
X90100000Y-98500000D02*
X90100000Y-98500000D01*
X90500000Y-98500000D02*
X90500000Y-98500000D01*
X90900000Y-98500000D02*
X90900000Y-98500000D01*
X91300000Y-98500000D02*
X91300000Y-98500000D01*
X91700000Y-98500000D02*
X91700000Y-98500000D01*
X92100000Y-98500000D02*
X92100000Y-98500000D01*
X92500000Y-98500000D02*
X92500000Y-98500000D01*
X92900000Y-98500000D02*
X92900000Y-98500000D01*
X93300000Y-98500000D02*
X93300000Y-98500000D01*
X93700000Y-98500000D02*
X93700000Y-98500000D01*
X94100000Y-98500000D02*
X94100000Y-98500000D01*
X94500000Y-98500000D02*
X94500000Y-98500000D01*
X94900000Y-98500000D02*
X94900000Y-98500000D01*
X95300000Y-98500000D02*
X95300000Y-98500000D01*
X95700000Y-98500000D02*
X95700000Y-98500000D01*
X96100000Y-98500000D02*
X96100000Y-98500000D01*
X96500000Y-98500000D02*
X96500000Y-98500000D01*
X96900000Y-98500000D02*
X96900000Y-98500000D01*
X97300000Y-98500000D02*
X97300000Y-98500000D01*
X97700000Y-98500000D02*
X97700000Y-98500000D01*
X98100000Y-98500000D02*
X98100000Y-98500000D01*
X98500000Y-98500000D02*
X98500000Y-98500000D01*
X98900000Y-98500000D02*
X98900000Y-98500000D01*
X99300000Y-98500000D02*
X99300000Y-98500000D01*
X99700000Y-98500000D02*
X99700000Y-98500000D01*
X100100000Y-98500000D02*
X100100000Y-98500000D01*
X100500000Y-98500000D02*
X100500000Y-98500000D01*
X100900000Y-98500000D02*
X100900000Y-98500000D01*
X101300000Y-98500000D02*
X101300000Y-98500000D01*
X101700000Y-98500000D02*
X101700000Y-98500000D01*
X102100000Y-98500000D02*
X102100000Y-98500000D01*
X102191970Y-98500000D02*
X102191970Y-98500000D01*
X102191970Y-98900000D02*
X102191970Y-98900000D01*
X102191970Y-99300000D02*
X102191970Y-99300000D01*
X102191970Y-99700000D02*
X102191970Y-99700000D01*
X102191970Y-100100000D02*
X102191970Y-100100000D01*
X102191970Y-100500000D02*
X102191970Y-100500000D01*
X102191970Y-100900000D02*
X102191970Y-100900000D01*
X102191970Y-101300000D02*
X102191970Y-101300000D01*
X102191970Y-101700000D02*
X102191970Y-101700000D01*
X102191970Y-102100000D02*
X102191970Y-102100000D01*
X102191970Y-102500000D02*
X102191970Y-102500000D01*
X102191970Y-102900000D02*
X102191970Y-102900000D01*
X102191970Y-103300000D02*
X102191970Y-103300000D01*
X102191970Y-103547436D02*
X102191970Y-103547436D01*
X101791970Y-103547436D02*
X101791970Y-103547436D01*
X101391970Y-103547436D02*
X101391970Y-103547436D01*
X100991970Y-103547436D02*
X100991970Y-103547436D01*
X100591970Y-103547436D02*
X100591970Y-103547436D01*
X100191970Y-103547436D02*
X100191970Y-103547436D01*
X99791970Y-103547436D02*
X99791970Y-103547436D01*
X99391970Y-103547436D02*
X99391970Y-103547436D01*
X98991970Y-103547436D02*
X98991970Y-103547436D01*
X98591970Y-103547436D02*
X98591970Y-103547436D01*
X98191970Y-103547436D02*
X98191970Y-103547436D01*
X97791970Y-103547436D02*
X97791970Y-103547436D01*
X97391970Y-103547436D02*
X97391970Y-103547436D01*
X96991970Y-103547436D02*
X96991970Y-103547436D01*
X96591970Y-103547436D02*
X96591970Y-103547436D01*
X96191970Y-103547436D02*
X96191970Y-103547436D01*
X95791970Y-103547436D02*
X95791970Y-103547436D01*
X95391970Y-103547436D02*
X95391970Y-103547436D01*
X94991970Y-103547436D02*
X94991970Y-103547436D01*
X94591970Y-103547436D02*
X94591970Y-103547436D01*
X94191970Y-103547436D02*
X94191970Y-103547436D01*
X93791970Y-103547436D02*
X93791970Y-103547436D01*
X93391970Y-103547436D02*
X93391970Y-103547436D01*
X92991970Y-103547436D02*
X92991970Y-103547436D01*
X92591970Y-103547436D02*
X92591970Y-103547436D01*
X92191970Y-103547436D02*
X92191970Y-103547436D01*
X91791970Y-103547436D02*
X91791970Y-103547436D01*
X91391970Y-103547436D02*
X91391970Y-103547436D01*
X90991970Y-103547436D02*
X90991970Y-103547436D01*
X90591970Y-103547436D02*
X90591970Y-103547436D01*
X90191970Y-103547436D02*
X90191970Y-103547436D01*
X89791970Y-103547436D02*
X89791970Y-103547436D01*
X89391970Y-103547436D02*
X89391970Y-103547436D01*
X88991970Y-103547436D02*
X88991970Y-103547436D01*
X88591970Y-103547436D02*
X88591970Y-103547436D01*
X88191970Y-103547436D02*
X88191970Y-103547436D01*
X87791970Y-103547436D02*
X87791970Y-103547436D01*
X87391970Y-103547436D02*
X87391970Y-103547436D01*
X86991970Y-103547436D02*
X86991970Y-103547436D01*
X86591970Y-103547436D02*
X86591970Y-103547436D01*
X86191970Y-103547436D02*
X86191970Y-103547436D01*
X85791970Y-103547436D02*
X85791970Y-103547436D01*
X85391970Y-103547436D02*
X85391970Y-103547436D01*
X84991970Y-103547436D02*
X84991970Y-103547436D01*
X84591970Y-103547436D02*
X84591970Y-103547436D01*
X84191970Y-103547436D02*
X84191970Y-103547436D01*
X83791970Y-103547436D02*
X83791970Y-103547436D01*
X83391970Y-103547436D02*
X83391970Y-103547436D01*
X82991970Y-103547436D02*
X82991970Y-103547436D01*
X82591970Y-103547436D02*
X82591970Y-103547436D01*
X82191970Y-103547436D02*
X82191970Y-103547436D01*
X81791970Y-103547436D02*
X81791970Y-103547436D01*
X81391970Y-103547436D02*
X81391970Y-103547436D01*
X80991970Y-103547436D02*
X80991970Y-103547436D01*
X80591970Y-103547436D02*
X80591970Y-103547436D01*
X80191970Y-103547436D02*
X80191970Y-103547436D01*
X79791970Y-103547436D02*
X79791970Y-103547436D01*
X79391970Y-103547436D02*
X79391970Y-103547436D01*
X78991970Y-103547436D02*
X78991970Y-103547436D01*
X78591970Y-103547436D02*
X78591970Y-103547436D01*
X78500000Y-103547436D02*
X78500000Y-103547436D01*
X78500000Y-103147436D02*
X78500000Y-103147436D01*
X78500000Y-102747436D02*
X78500000Y-102747436D01*
X78500000Y-102347436D02*
X78500000Y-102347436D01*
X78500000Y-101947436D02*
X78500000Y-101947436D01*
X78500000Y-101547436D02*
X78500000Y-101547436D01*
X78500000Y-101147436D02*
X78500000Y-101147436D01*
X78500000Y-100747436D02*
X78500000Y-100747436D01*
X78500000Y-100347436D02*
X78500000Y-100347436D01*
X78500000Y-99947436D02*
X78500000Y-99947436D01*
X78500000Y-99547436D02*
X78500000Y-99547436D01*
X78500000Y-99147436D02*
X78500000Y-99147436D01*
X78500000Y-98747436D02*
X78500000Y-98747436D01*
X84000000Y-89000000D02*
X84000000Y-92500000D01*
X84000000Y-89000000D01*
D11*
X62494580Y-104441275D02*
G75*
G02*
X59994625Y-101941275I20J2499975D01*
G01*
D10*
X85750000Y-90000000D02*
X88500000Y-90000000D01*
X92551674Y-92750000D02*
X92558416Y-93206149D01*
X88500000Y-91500000D02*
X85750000Y-91500000D01*
X94540164Y-85834018D02*
X94539626Y-86934018D01*
X94539431Y-87334018D02*
X94538893Y-88434018D01*
X94538698Y-88834018D02*
X94538160Y-89934018D01*
X94537965Y-90334017D02*
X94537427Y-91434017D01*
X94537232Y-91834017D02*
X94536694Y-92934017D01*
X68000000Y-91500000D02*
X78500000Y-91500000D01*
X80500000Y-92500000D02*
X84000000Y-92500000D01*
X80500000Y-92500000D01*
X104250000Y-97000000D02*
X88500000Y-97000000D01*
D11*
X120588022Y-101936926D02*
G75*
G02*
X118088022Y-104436922I-2500022J26D01*
G01*
D10*
X92536040Y-85808993D02*
X92549955Y-86250000D01*
D11*
X120600868Y-79436231D02*
X120600868Y-101936231D01*
D10*
X114018102Y-93207611D02*
X114430122Y-93207109D01*
X68500000Y-81000000D02*
X69600000Y-81000000D01*
X70000000Y-81000000D02*
X71000000Y-81000000D01*
X88500000Y-90000000D02*
X88500000Y-84500000D01*
D11*
X62544506Y-76938865D02*
X118144506Y-76938865D01*
X118100868Y-76936231D02*
G75*
G02*
X120600869Y-79436231I32J-2499969D01*
G01*
D10*
X71000000Y-90000000D02*
X68000000Y-90000000D01*
X71000000Y-81000000D02*
X71000000Y-82100000D01*
X71000000Y-82500000D02*
X71000000Y-83600000D01*
X71000000Y-84000000D02*
X71000000Y-85100000D01*
X71000000Y-85500000D02*
X71000000Y-86600000D01*
X71000000Y-87000000D02*
X71000000Y-88100000D01*
X71000000Y-88500000D02*
X71000000Y-89600000D01*
X71000000Y-90000000D02*
X71000000Y-90000000D01*
X97863592Y-89002033D02*
X97863592Y-89502033D01*
D11*
X60008294Y-79443220D02*
X60008294Y-101943220D01*
D10*
X68000000Y-90000000D02*
X78500000Y-90000000D01*
X100000000Y-85810680D02*
X98900000Y-85810431D01*
X98500000Y-85810341D02*
X97400000Y-85810092D01*
X97000000Y-85810002D02*
X95900000Y-85809753D01*
X95500000Y-85809663D02*
X94400000Y-85809414D01*
X94000000Y-85809324D02*
X92900000Y-85809075D01*
X78500000Y-91500000D02*
X71000000Y-91500000D01*
D11*
X60008294Y-79443220D02*
G75*
G02*
X62508294Y-76943194I2500006J20D01*
G01*
D10*
X113949767Y-85810680D02*
X112849767Y-85810680D01*
X112449767Y-85810680D02*
X111349767Y-85810680D01*
X110949767Y-85810680D02*
X109849767Y-85810680D01*
X109449767Y-85810680D02*
X108349767Y-85810680D01*
X107949767Y-85810680D02*
X106849767Y-85810680D01*
X106449767Y-85810680D02*
X105349767Y-85810680D01*
X104949767Y-85810680D02*
X103849767Y-85810680D01*
X103449767Y-85810680D02*
X102349767Y-85810680D01*
X101949767Y-85810680D02*
X100849767Y-85810680D01*
X100449767Y-85810680D02*
X100000000Y-85810680D01*
X80500000Y-89000000D02*
X80500000Y-92500000D01*
X80500000Y-89000000D01*
D12*
X105483082Y-85134400D02*
X105697368Y-85205828D01*
X105697368Y-85205828D02*
X106054510Y-85205828D01*
X106054510Y-85205828D02*
X106197368Y-85134400D01*
X106197368Y-85134400D02*
X106268796Y-85062971D01*
X106268796Y-85062971D02*
X106340225Y-84920114D01*
X106340225Y-84920114D02*
X106340225Y-84777257D01*
X106340225Y-84777257D02*
X106268796Y-84634400D01*
X106268796Y-84634400D02*
X106197368Y-84562971D01*
X106197368Y-84562971D02*
X106054510Y-84491542D01*
X106054510Y-84491542D02*
X105768796Y-84420114D01*
X105768796Y-84420114D02*
X105625939Y-84348685D01*
X105625939Y-84348685D02*
X105554510Y-84277257D01*
X105554510Y-84277257D02*
X105483082Y-84134400D01*
X105483082Y-84134400D02*
X105483082Y-83991542D01*
X105483082Y-83991542D02*
X105554510Y-83848685D01*
X105554510Y-83848685D02*
X105625939Y-83777257D01*
X105625939Y-83777257D02*
X105768796Y-83705828D01*
X105768796Y-83705828D02*
X106125939Y-83705828D01*
X106125939Y-83705828D02*
X106340225Y-83777257D01*
X107268796Y-84491542D02*
X107268796Y-85205828D01*
X106768796Y-83705828D02*
X107268796Y-84491542D01*
X107268796Y-84491542D02*
X107768796Y-83705828D01*
X108197367Y-85134400D02*
X108411653Y-85205828D01*
X108411653Y-85205828D02*
X108768795Y-85205828D01*
X108768795Y-85205828D02*
X108911653Y-85134400D01*
X108911653Y-85134400D02*
X108983081Y-85062971D01*
X108983081Y-85062971D02*
X109054510Y-84920114D01*
X109054510Y-84920114D02*
X109054510Y-84777257D01*
X109054510Y-84777257D02*
X108983081Y-84634400D01*
X108983081Y-84634400D02*
X108911653Y-84562971D01*
X108911653Y-84562971D02*
X108768795Y-84491542D01*
X108768795Y-84491542D02*
X108483081Y-84420114D01*
X108483081Y-84420114D02*
X108340224Y-84348685D01*
X108340224Y-84348685D02*
X108268795Y-84277257D01*
X108268795Y-84277257D02*
X108197367Y-84134400D01*
X108197367Y-84134400D02*
X108197367Y-83991542D01*
X108197367Y-83991542D02*
X108268795Y-83848685D01*
X108268795Y-83848685D02*
X108340224Y-83777257D01*
X108340224Y-83777257D02*
X108483081Y-83705828D01*
X108483081Y-83705828D02*
X108840224Y-83705828D01*
X108840224Y-83705828D02*
X109054510Y-83777257D01*
X109697366Y-85205828D02*
X109697366Y-83705828D01*
X109697366Y-83705828D02*
X110268795Y-83705828D01*
X110268795Y-83705828D02*
X110411652Y-83777257D01*
X110411652Y-83777257D02*
X110483081Y-83848685D01*
X110483081Y-83848685D02*
X110554509Y-83991542D01*
X110554509Y-83991542D02*
X110554509Y-84205828D01*
X110554509Y-84205828D02*
X110483081Y-84348685D01*
X110483081Y-84348685D02*
X110411652Y-84420114D01*
X110411652Y-84420114D02*
X110268795Y-84491542D01*
X110268795Y-84491542D02*
X109697366Y-84491542D01*
X111054509Y-83705828D02*
X111411652Y-85205828D01*
X111411652Y-85205828D02*
X111697366Y-84134400D01*
X111697366Y-84134400D02*
X111983081Y-85205828D01*
X111983081Y-85205828D02*
X112340224Y-83705828D01*
X113768795Y-85205828D02*
X113268795Y-84491542D01*
X112911652Y-85205828D02*
X112911652Y-83705828D01*
X112911652Y-83705828D02*
X113483081Y-83705828D01*
X113483081Y-83705828D02*
X113625938Y-83777257D01*
X113625938Y-83777257D02*
X113697367Y-83848685D01*
X113697367Y-83848685D02*
X113768795Y-83991542D01*
X113768795Y-83991542D02*
X113768795Y-84205828D01*
X113768795Y-84205828D02*
X113697367Y-84348685D01*
X113697367Y-84348685D02*
X113625938Y-84420114D01*
X113625938Y-84420114D02*
X113483081Y-84491542D01*
X113483081Y-84491542D02*
X112911652Y-84491542D01*
D11*
X75860588Y-81417438D02*
X75765350Y-81369819D01*
X75765350Y-81369819D02*
X75622493Y-81369819D01*
X75622493Y-81369819D02*
X75479636Y-81417438D01*
X75479636Y-81417438D02*
X75384398Y-81512676D01*
X75384398Y-81512676D02*
X75336779Y-81607914D01*
X75336779Y-81607914D02*
X75289160Y-81798390D01*
X75289160Y-81798390D02*
X75289160Y-81941247D01*
X75289160Y-81941247D02*
X75336779Y-82131723D01*
X75336779Y-82131723D02*
X75384398Y-82226961D01*
X75384398Y-82226961D02*
X75479636Y-82322200D01*
X75479636Y-82322200D02*
X75622493Y-82369819D01*
X75622493Y-82369819D02*
X75717731Y-82369819D01*
X75717731Y-82369819D02*
X75860588Y-82322200D01*
X75860588Y-82322200D02*
X75908207Y-82274580D01*
X75908207Y-82274580D02*
X75908207Y-81941247D01*
X75908207Y-81941247D02*
X75717731Y-81941247D01*
X76336779Y-82369819D02*
X76336779Y-81369819D01*
X76336779Y-81369819D02*
X76908207Y-82369819D01*
X76908207Y-82369819D02*
X76908207Y-81369819D01*
X77384398Y-82369819D02*
X77384398Y-81369819D01*
X77384398Y-81369819D02*
X77622493Y-81369819D01*
X77622493Y-81369819D02*
X77765350Y-81417438D01*
X77765350Y-81417438D02*
X77860588Y-81512676D01*
X77860588Y-81512676D02*
X77908207Y-81607914D01*
X77908207Y-81607914D02*
X77955826Y-81798390D01*
X77955826Y-81798390D02*
X77955826Y-81941247D01*
X77955826Y-81941247D02*
X77908207Y-82131723D01*
X77908207Y-82131723D02*
X77860588Y-82226961D01*
X77860588Y-82226961D02*
X77765350Y-82322200D01*
X77765350Y-82322200D02*
X77622493Y-82369819D01*
X77622493Y-82369819D02*
X77384398Y-82369819D01*
D10*
X68303884Y-88991466D02*
X69065789Y-88991466D01*
X68684836Y-89372419D02*
X68684836Y-88610514D01*
D12*
X104054510Y-90205828D02*
X104054510Y-88705828D01*
X104054510Y-88705828D02*
X104625939Y-88705828D01*
X104625939Y-88705828D02*
X104768796Y-88777257D01*
X104768796Y-88777257D02*
X104840225Y-88848685D01*
X104840225Y-88848685D02*
X104911653Y-88991542D01*
X104911653Y-88991542D02*
X104911653Y-89205828D01*
X104911653Y-89205828D02*
X104840225Y-89348685D01*
X104840225Y-89348685D02*
X104768796Y-89420114D01*
X104768796Y-89420114D02*
X104625939Y-89491542D01*
X104625939Y-89491542D02*
X104054510Y-89491542D01*
X105554510Y-88705828D02*
X105554510Y-89920114D01*
X105554510Y-89920114D02*
X105625939Y-90062971D01*
X105625939Y-90062971D02*
X105697368Y-90134400D01*
X105697368Y-90134400D02*
X105840225Y-90205828D01*
X105840225Y-90205828D02*
X106125939Y-90205828D01*
X106125939Y-90205828D02*
X106268796Y-90134400D01*
X106268796Y-90134400D02*
X106340225Y-90062971D01*
X106340225Y-90062971D02*
X106411653Y-89920114D01*
X106411653Y-89920114D02*
X106411653Y-88705828D01*
X107840225Y-90205828D02*
X107125939Y-90205828D01*
X107125939Y-90205828D02*
X107125939Y-88705828D01*
X109054511Y-90205828D02*
X108340225Y-90205828D01*
X108340225Y-90205828D02*
X108340225Y-88705828D01*
X109554511Y-89634400D02*
X110697369Y-89634400D01*
X111411654Y-88705828D02*
X111411654Y-89920114D01*
X111411654Y-89920114D02*
X111483083Y-90062971D01*
X111483083Y-90062971D02*
X111554512Y-90134400D01*
X111554512Y-90134400D02*
X111697369Y-90205828D01*
X111697369Y-90205828D02*
X111983083Y-90205828D01*
X111983083Y-90205828D02*
X112125940Y-90134400D01*
X112125940Y-90134400D02*
X112197369Y-90062971D01*
X112197369Y-90062971D02*
X112268797Y-89920114D01*
X112268797Y-89920114D02*
X112268797Y-88705828D01*
X112983083Y-90205828D02*
X112983083Y-88705828D01*
X112983083Y-88705828D02*
X113554512Y-88705828D01*
X113554512Y-88705828D02*
X113697369Y-88777257D01*
X113697369Y-88777257D02*
X113768798Y-88848685D01*
X113768798Y-88848685D02*
X113840226Y-88991542D01*
X113840226Y-88991542D02*
X113840226Y-89205828D01*
X113840226Y-89205828D02*
X113768798Y-89348685D01*
X113768798Y-89348685D02*
X113697369Y-89420114D01*
X113697369Y-89420114D02*
X113554512Y-89491542D01*
X113554512Y-89491542D02*
X112983083Y-89491542D01*
D10*
X87065789Y-92491466D02*
X86303884Y-92491466D01*
X86494360Y-92681942D02*
X86303884Y-92491466D01*
X86303884Y-92491466D02*
X86494360Y-92300990D01*
X68303884Y-92491466D02*
X69065789Y-92491466D01*
D12*
X109983082Y-92634400D02*
X110197368Y-92705828D01*
X110197368Y-92705828D02*
X110554510Y-92705828D01*
X110554510Y-92705828D02*
X110697368Y-92634400D01*
X110697368Y-92634400D02*
X110768796Y-92562971D01*
X110768796Y-92562971D02*
X110840225Y-92420114D01*
X110840225Y-92420114D02*
X110840225Y-92277257D01*
X110840225Y-92277257D02*
X110768796Y-92134400D01*
X110768796Y-92134400D02*
X110697368Y-92062971D01*
X110697368Y-92062971D02*
X110554510Y-91991542D01*
X110554510Y-91991542D02*
X110268796Y-91920114D01*
X110268796Y-91920114D02*
X110125939Y-91848685D01*
X110125939Y-91848685D02*
X110054510Y-91777257D01*
X110054510Y-91777257D02*
X109983082Y-91634400D01*
X109983082Y-91634400D02*
X109983082Y-91491542D01*
X109983082Y-91491542D02*
X110054510Y-91348685D01*
X110054510Y-91348685D02*
X110125939Y-91277257D01*
X110125939Y-91277257D02*
X110268796Y-91205828D01*
X110268796Y-91205828D02*
X110625939Y-91205828D01*
X110625939Y-91205828D02*
X110840225Y-91277257D01*
X112340224Y-92562971D02*
X112268796Y-92634400D01*
X112268796Y-92634400D02*
X112054510Y-92705828D01*
X112054510Y-92705828D02*
X111911653Y-92705828D01*
X111911653Y-92705828D02*
X111697367Y-92634400D01*
X111697367Y-92634400D02*
X111554510Y-92491542D01*
X111554510Y-92491542D02*
X111483081Y-92348685D01*
X111483081Y-92348685D02*
X111411653Y-92062971D01*
X111411653Y-92062971D02*
X111411653Y-91848685D01*
X111411653Y-91848685D02*
X111483081Y-91562971D01*
X111483081Y-91562971D02*
X111554510Y-91420114D01*
X111554510Y-91420114D02*
X111697367Y-91277257D01*
X111697367Y-91277257D02*
X111911653Y-91205828D01*
X111911653Y-91205828D02*
X112054510Y-91205828D01*
X112054510Y-91205828D02*
X112268796Y-91277257D01*
X112268796Y-91277257D02*
X112340224Y-91348685D01*
X113697367Y-92705828D02*
X112983081Y-92705828D01*
X112983081Y-92705828D02*
X112983081Y-91205828D01*
D13*
X84373810Y-102347309D02*
X84516667Y-102394928D01*
X84516667Y-102394928D02*
X84564286Y-102442547D01*
X84564286Y-102442547D02*
X84611905Y-102537785D01*
X84611905Y-102537785D02*
X84611905Y-102680642D01*
X84611905Y-102680642D02*
X84564286Y-102775880D01*
X84564286Y-102775880D02*
X84516667Y-102823500D01*
X84516667Y-102823500D02*
X84421429Y-102871119D01*
X84421429Y-102871119D02*
X84040477Y-102871119D01*
X84040477Y-102871119D02*
X84040477Y-101871119D01*
X84040477Y-101871119D02*
X84373810Y-101871119D01*
X84373810Y-101871119D02*
X84469048Y-101918738D01*
X84469048Y-101918738D02*
X84516667Y-101966357D01*
X84516667Y-101966357D02*
X84564286Y-102061595D01*
X84564286Y-102061595D02*
X84564286Y-102156833D01*
X84564286Y-102156833D02*
X84516667Y-102252071D01*
X84516667Y-102252071D02*
X84469048Y-102299690D01*
X84469048Y-102299690D02*
X84373810Y-102347309D01*
X84373810Y-102347309D02*
X84040477Y-102347309D01*
X84945239Y-102204452D02*
X85183334Y-102871119D01*
X85421429Y-102204452D02*
X85183334Y-102871119D01*
X85183334Y-102871119D02*
X85088096Y-103109214D01*
X85088096Y-103109214D02*
X85040477Y-103156833D01*
X85040477Y-103156833D02*
X84945239Y-103204452D01*
X87135715Y-102871119D02*
X86802382Y-102394928D01*
X86564287Y-102871119D02*
X86564287Y-101871119D01*
X86564287Y-101871119D02*
X86945239Y-101871119D01*
X86945239Y-101871119D02*
X87040477Y-101918738D01*
X87040477Y-101918738D02*
X87088096Y-101966357D01*
X87088096Y-101966357D02*
X87135715Y-102061595D01*
X87135715Y-102061595D02*
X87135715Y-102204452D01*
X87135715Y-102204452D02*
X87088096Y-102299690D01*
X87088096Y-102299690D02*
X87040477Y-102347309D01*
X87040477Y-102347309D02*
X86945239Y-102394928D01*
X86945239Y-102394928D02*
X86564287Y-102394928D01*
X87945239Y-102823500D02*
X87850001Y-102871119D01*
X87850001Y-102871119D02*
X87659525Y-102871119D01*
X87659525Y-102871119D02*
X87564287Y-102823500D01*
X87564287Y-102823500D02*
X87516668Y-102728261D01*
X87516668Y-102728261D02*
X87516668Y-102347309D01*
X87516668Y-102347309D02*
X87564287Y-102252071D01*
X87564287Y-102252071D02*
X87659525Y-102204452D01*
X87659525Y-102204452D02*
X87850001Y-102204452D01*
X87850001Y-102204452D02*
X87945239Y-102252071D01*
X87945239Y-102252071D02*
X87992858Y-102347309D01*
X87992858Y-102347309D02*
X87992858Y-102442547D01*
X87992858Y-102442547D02*
X87516668Y-102537785D01*
X88421430Y-102871119D02*
X88421430Y-102204452D01*
X88421430Y-101871119D02*
X88373811Y-101918738D01*
X88373811Y-101918738D02*
X88421430Y-101966357D01*
X88421430Y-101966357D02*
X88469049Y-101918738D01*
X88469049Y-101918738D02*
X88421430Y-101871119D01*
X88421430Y-101871119D02*
X88421430Y-101966357D01*
X88897620Y-102204452D02*
X88897620Y-102871119D01*
X88897620Y-102299690D02*
X88945239Y-102252071D01*
X88945239Y-102252071D02*
X89040477Y-102204452D01*
X89040477Y-102204452D02*
X89183334Y-102204452D01*
X89183334Y-102204452D02*
X89278572Y-102252071D01*
X89278572Y-102252071D02*
X89326191Y-102347309D01*
X89326191Y-102347309D02*
X89326191Y-102871119D01*
X89945239Y-102871119D02*
X89850001Y-102823500D01*
X89850001Y-102823500D02*
X89802382Y-102775880D01*
X89802382Y-102775880D02*
X89754763Y-102680642D01*
X89754763Y-102680642D02*
X89754763Y-102394928D01*
X89754763Y-102394928D02*
X89802382Y-102299690D01*
X89802382Y-102299690D02*
X89850001Y-102252071D01*
X89850001Y-102252071D02*
X89945239Y-102204452D01*
X89945239Y-102204452D02*
X90088096Y-102204452D01*
X90088096Y-102204452D02*
X90183334Y-102252071D01*
X90183334Y-102252071D02*
X90230953Y-102299690D01*
X90230953Y-102299690D02*
X90278572Y-102394928D01*
X90278572Y-102394928D02*
X90278572Y-102680642D01*
X90278572Y-102680642D02*
X90230953Y-102775880D01*
X90230953Y-102775880D02*
X90183334Y-102823500D01*
X90183334Y-102823500D02*
X90088096Y-102871119D01*
X90088096Y-102871119D02*
X89945239Y-102871119D01*
X91135715Y-102204452D02*
X91135715Y-102871119D01*
X90707144Y-102204452D02*
X90707144Y-102728261D01*
X90707144Y-102728261D02*
X90754763Y-102823500D01*
X90754763Y-102823500D02*
X90850001Y-102871119D01*
X90850001Y-102871119D02*
X90992858Y-102871119D01*
X90992858Y-102871119D02*
X91088096Y-102823500D01*
X91088096Y-102823500D02*
X91135715Y-102775880D01*
X91469049Y-102204452D02*
X91850001Y-102204452D01*
X91611906Y-101871119D02*
X91611906Y-102728261D01*
X91611906Y-102728261D02*
X91659525Y-102823500D01*
X91659525Y-102823500D02*
X91754763Y-102871119D01*
X91754763Y-102871119D02*
X91850001Y-102871119D01*
X93516668Y-102871119D02*
X93183335Y-102394928D01*
X92945240Y-102871119D02*
X92945240Y-101871119D01*
X92945240Y-101871119D02*
X93326192Y-101871119D01*
X93326192Y-101871119D02*
X93421430Y-101918738D01*
X93421430Y-101918738D02*
X93469049Y-101966357D01*
X93469049Y-101966357D02*
X93516668Y-102061595D01*
X93516668Y-102061595D02*
X93516668Y-102204452D01*
X93516668Y-102204452D02*
X93469049Y-102299690D01*
X93469049Y-102299690D02*
X93421430Y-102347309D01*
X93421430Y-102347309D02*
X93326192Y-102394928D01*
X93326192Y-102394928D02*
X92945240Y-102394928D01*
X94088097Y-102871119D02*
X93992859Y-102823500D01*
X93992859Y-102823500D02*
X93945240Y-102775880D01*
X93945240Y-102775880D02*
X93897621Y-102680642D01*
X93897621Y-102680642D02*
X93897621Y-102394928D01*
X93897621Y-102394928D02*
X93945240Y-102299690D01*
X93945240Y-102299690D02*
X93992859Y-102252071D01*
X93992859Y-102252071D02*
X94088097Y-102204452D01*
X94088097Y-102204452D02*
X94230954Y-102204452D01*
X94230954Y-102204452D02*
X94326192Y-102252071D01*
X94326192Y-102252071D02*
X94373811Y-102299690D01*
X94373811Y-102299690D02*
X94421430Y-102394928D01*
X94421430Y-102394928D02*
X94421430Y-102680642D01*
X94421430Y-102680642D02*
X94373811Y-102775880D01*
X94373811Y-102775880D02*
X94326192Y-102823500D01*
X94326192Y-102823500D02*
X94230954Y-102871119D01*
X94230954Y-102871119D02*
X94088097Y-102871119D01*
X95230954Y-102823500D02*
X95135716Y-102871119D01*
X95135716Y-102871119D02*
X94945240Y-102871119D01*
X94945240Y-102871119D02*
X94850002Y-102823500D01*
X94850002Y-102823500D02*
X94802383Y-102728261D01*
X94802383Y-102728261D02*
X94802383Y-102347309D01*
X94802383Y-102347309D02*
X94850002Y-102252071D01*
X94850002Y-102252071D02*
X94945240Y-102204452D01*
X94945240Y-102204452D02*
X95135716Y-102204452D01*
X95135716Y-102204452D02*
X95230954Y-102252071D01*
X95230954Y-102252071D02*
X95278573Y-102347309D01*
X95278573Y-102347309D02*
X95278573Y-102442547D01*
X95278573Y-102442547D02*
X94802383Y-102537785D01*
X95850002Y-102871119D02*
X95754764Y-102823500D01*
X95754764Y-102823500D02*
X95707145Y-102728261D01*
X95707145Y-102728261D02*
X95707145Y-101871119D01*
X96183336Y-102823500D02*
X96278574Y-102871119D01*
X96278574Y-102871119D02*
X96469050Y-102871119D01*
X96469050Y-102871119D02*
X96564288Y-102823500D01*
X96564288Y-102823500D02*
X96611907Y-102728261D01*
X96611907Y-102728261D02*
X96611907Y-102680642D01*
X96611907Y-102680642D02*
X96564288Y-102585404D01*
X96564288Y-102585404D02*
X96469050Y-102537785D01*
X96469050Y-102537785D02*
X96326193Y-102537785D01*
X96326193Y-102537785D02*
X96230955Y-102490166D01*
X96230955Y-102490166D02*
X96183336Y-102394928D01*
X96183336Y-102394928D02*
X96183336Y-102347309D01*
X96183336Y-102347309D02*
X96230955Y-102252071D01*
X96230955Y-102252071D02*
X96326193Y-102204452D01*
X96326193Y-102204452D02*
X96469050Y-102204452D01*
X96469050Y-102204452D02*
X96564288Y-102252071D01*
D10*
X76303884Y-88991466D02*
X77065789Y-88991466D01*
X76875312Y-89181942D02*
X77065789Y-88991466D01*
X77065789Y-88991466D02*
X76875312Y-88800990D01*
D12*
X108983082Y-94777257D02*
X109697368Y-94777257D01*
X108840225Y-95205828D02*
X109340225Y-93705828D01*
X109340225Y-93705828D02*
X109840225Y-95205828D01*
X111054510Y-95205828D02*
X110340224Y-95205828D01*
X110340224Y-95205828D02*
X110340224Y-93705828D01*
X112411653Y-95205828D02*
X111911653Y-94491542D01*
X111554510Y-95205828D02*
X111554510Y-93705828D01*
X111554510Y-93705828D02*
X112125939Y-93705828D01*
X112125939Y-93705828D02*
X112268796Y-93777257D01*
X112268796Y-93777257D02*
X112340225Y-93848685D01*
X112340225Y-93848685D02*
X112411653Y-93991542D01*
X112411653Y-93991542D02*
X112411653Y-94205828D01*
X112411653Y-94205828D02*
X112340225Y-94348685D01*
X112340225Y-94348685D02*
X112268796Y-94420114D01*
X112268796Y-94420114D02*
X112125939Y-94491542D01*
X112125939Y-94491542D02*
X111554510Y-94491542D01*
X112840225Y-93705828D02*
X113697368Y-93705828D01*
X113268796Y-95205828D02*
X113268796Y-93705828D01*
D14*
X94095612Y-90292281D02*
X93095612Y-90292281D01*
X93190850Y-89863710D02*
X93143231Y-89816091D01*
X93143231Y-89816091D02*
X93095612Y-89720853D01*
X93095612Y-89720853D02*
X93095612Y-89482758D01*
X93095612Y-89482758D02*
X93143231Y-89387520D01*
X93143231Y-89387520D02*
X93190850Y-89339901D01*
X93190850Y-89339901D02*
X93286088Y-89292282D01*
X93286088Y-89292282D02*
X93381326Y-89292282D01*
X93381326Y-89292282D02*
X93524183Y-89339901D01*
X93524183Y-89339901D02*
X94095612Y-89911329D01*
X94095612Y-89911329D02*
X94095612Y-89292282D01*
X94000373Y-88292282D02*
X94047993Y-88339901D01*
X94047993Y-88339901D02*
X94095612Y-88482758D01*
X94095612Y-88482758D02*
X94095612Y-88577996D01*
X94095612Y-88577996D02*
X94047993Y-88720853D01*
X94047993Y-88720853D02*
X93952754Y-88816091D01*
X93952754Y-88816091D02*
X93857516Y-88863710D01*
X93857516Y-88863710D02*
X93667040Y-88911329D01*
X93667040Y-88911329D02*
X93524183Y-88911329D01*
X93524183Y-88911329D02*
X93333707Y-88863710D01*
X93333707Y-88863710D02*
X93238469Y-88816091D01*
X93238469Y-88816091D02*
X93143231Y-88720853D01*
X93143231Y-88720853D02*
X93095612Y-88577996D01*
X93095612Y-88577996D02*
X93095612Y-88482758D01*
X93095612Y-88482758D02*
X93143231Y-88339901D01*
X93143231Y-88339901D02*
X93190850Y-88292282D01*
D10*
X101803884Y-91741466D02*
X102565789Y-91741466D01*
X102375312Y-91931942D02*
X102565789Y-91741466D01*
X102565789Y-91741466D02*
X102375312Y-91550990D01*
D12*
X109983082Y-87634400D02*
X110197368Y-87705828D01*
X110197368Y-87705828D02*
X110554510Y-87705828D01*
X110554510Y-87705828D02*
X110697368Y-87634400D01*
X110697368Y-87634400D02*
X110768796Y-87562971D01*
X110768796Y-87562971D02*
X110840225Y-87420114D01*
X110840225Y-87420114D02*
X110840225Y-87277257D01*
X110840225Y-87277257D02*
X110768796Y-87134400D01*
X110768796Y-87134400D02*
X110697368Y-87062971D01*
X110697368Y-87062971D02*
X110554510Y-86991542D01*
X110554510Y-86991542D02*
X110268796Y-86920114D01*
X110268796Y-86920114D02*
X110125939Y-86848685D01*
X110125939Y-86848685D02*
X110054510Y-86777257D01*
X110054510Y-86777257D02*
X109983082Y-86634400D01*
X109983082Y-86634400D02*
X109983082Y-86491542D01*
X109983082Y-86491542D02*
X110054510Y-86348685D01*
X110054510Y-86348685D02*
X110125939Y-86277257D01*
X110125939Y-86277257D02*
X110268796Y-86205828D01*
X110268796Y-86205828D02*
X110625939Y-86205828D01*
X110625939Y-86205828D02*
X110840225Y-86277257D01*
X111483081Y-87705828D02*
X111483081Y-86205828D01*
X111483081Y-86205828D02*
X111840224Y-86205828D01*
X111840224Y-86205828D02*
X112054510Y-86277257D01*
X112054510Y-86277257D02*
X112197367Y-86420114D01*
X112197367Y-86420114D02*
X112268796Y-86562971D01*
X112268796Y-86562971D02*
X112340224Y-86848685D01*
X112340224Y-86848685D02*
X112340224Y-87062971D01*
X112340224Y-87062971D02*
X112268796Y-87348685D01*
X112268796Y-87348685D02*
X112197367Y-87491542D01*
X112197367Y-87491542D02*
X112054510Y-87634400D01*
X112054510Y-87634400D02*
X111840224Y-87705828D01*
X111840224Y-87705828D02*
X111483081Y-87705828D01*
X112911653Y-87277257D02*
X113625939Y-87277257D01*
X112768796Y-87705828D02*
X113268796Y-86205828D01*
X113268796Y-86205828D02*
X113768796Y-87705828D01*
D10*
X86303884Y-88991466D02*
X87065789Y-88991466D01*
X86875312Y-89181942D02*
X87065789Y-88991466D01*
X87065789Y-88991466D02*
X86875312Y-88800990D01*
D12*
X105483082Y-97634400D02*
X105697368Y-97705828D01*
X105697368Y-97705828D02*
X106054510Y-97705828D01*
X106054510Y-97705828D02*
X106197368Y-97634400D01*
X106197368Y-97634400D02*
X106268796Y-97562971D01*
X106268796Y-97562971D02*
X106340225Y-97420114D01*
X106340225Y-97420114D02*
X106340225Y-97277257D01*
X106340225Y-97277257D02*
X106268796Y-97134400D01*
X106268796Y-97134400D02*
X106197368Y-97062971D01*
X106197368Y-97062971D02*
X106054510Y-96991542D01*
X106054510Y-96991542D02*
X105768796Y-96920114D01*
X105768796Y-96920114D02*
X105625939Y-96848685D01*
X105625939Y-96848685D02*
X105554510Y-96777257D01*
X105554510Y-96777257D02*
X105483082Y-96634400D01*
X105483082Y-96634400D02*
X105483082Y-96491542D01*
X105483082Y-96491542D02*
X105554510Y-96348685D01*
X105554510Y-96348685D02*
X105625939Y-96277257D01*
X105625939Y-96277257D02*
X105768796Y-96205828D01*
X105768796Y-96205828D02*
X106125939Y-96205828D01*
X106125939Y-96205828D02*
X106340225Y-96277257D01*
X107268796Y-96991542D02*
X107268796Y-97705828D01*
X106768796Y-96205828D02*
X107268796Y-96991542D01*
X107268796Y-96991542D02*
X107768796Y-96205828D01*
X108197367Y-97634400D02*
X108411653Y-97705828D01*
X108411653Y-97705828D02*
X108768795Y-97705828D01*
X108768795Y-97705828D02*
X108911653Y-97634400D01*
X108911653Y-97634400D02*
X108983081Y-97562971D01*
X108983081Y-97562971D02*
X109054510Y-97420114D01*
X109054510Y-97420114D02*
X109054510Y-97277257D01*
X109054510Y-97277257D02*
X108983081Y-97134400D01*
X108983081Y-97134400D02*
X108911653Y-97062971D01*
X108911653Y-97062971D02*
X108768795Y-96991542D01*
X108768795Y-96991542D02*
X108483081Y-96920114D01*
X108483081Y-96920114D02*
X108340224Y-96848685D01*
X108340224Y-96848685D02*
X108268795Y-96777257D01*
X108268795Y-96777257D02*
X108197367Y-96634400D01*
X108197367Y-96634400D02*
X108197367Y-96491542D01*
X108197367Y-96491542D02*
X108268795Y-96348685D01*
X108268795Y-96348685D02*
X108340224Y-96277257D01*
X108340224Y-96277257D02*
X108483081Y-96205828D01*
X108483081Y-96205828D02*
X108840224Y-96205828D01*
X108840224Y-96205828D02*
X109054510Y-96277257D01*
X110483081Y-96277257D02*
X110340224Y-96205828D01*
X110340224Y-96205828D02*
X110125938Y-96205828D01*
X110125938Y-96205828D02*
X109911652Y-96277257D01*
X109911652Y-96277257D02*
X109768795Y-96420114D01*
X109768795Y-96420114D02*
X109697366Y-96562971D01*
X109697366Y-96562971D02*
X109625938Y-96848685D01*
X109625938Y-96848685D02*
X109625938Y-97062971D01*
X109625938Y-97062971D02*
X109697366Y-97348685D01*
X109697366Y-97348685D02*
X109768795Y-97491542D01*
X109768795Y-97491542D02*
X109911652Y-97634400D01*
X109911652Y-97634400D02*
X110125938Y-97705828D01*
X110125938Y-97705828D02*
X110268795Y-97705828D01*
X110268795Y-97705828D02*
X110483081Y-97634400D01*
X110483081Y-97634400D02*
X110554509Y-97562971D01*
X110554509Y-97562971D02*
X110554509Y-97062971D01*
X110554509Y-97062971D02*
X110268795Y-97062971D01*
X111197366Y-97705828D02*
X111197366Y-96205828D01*
X111197366Y-96205828D02*
X112054509Y-97705828D01*
X112054509Y-97705828D02*
X112054509Y-96205828D01*
X112768795Y-97705828D02*
X112768795Y-96205828D01*
X112768795Y-96205828D02*
X113125938Y-96205828D01*
X113125938Y-96205828D02*
X113340224Y-96277257D01*
X113340224Y-96277257D02*
X113483081Y-96420114D01*
X113483081Y-96420114D02*
X113554510Y-96562971D01*
X113554510Y-96562971D02*
X113625938Y-96848685D01*
X113625938Y-96848685D02*
X113625938Y-97062971D01*
X113625938Y-97062971D02*
X113554510Y-97348685D01*
X113554510Y-97348685D02*
X113483081Y-97491542D01*
X113483081Y-97491542D02*
X113340224Y-97634400D01*
X113340224Y-97634400D02*
X113125938Y-97705828D01*
X113125938Y-97705828D02*
X112768795Y-97705828D01*
D11*
X84789160Y-82084104D02*
X85265350Y-82084104D01*
X84693922Y-82369819D02*
X85027255Y-81369819D01*
X85027255Y-81369819D02*
X85360588Y-82369819D01*
X86170112Y-82369819D02*
X85693922Y-82369819D01*
X85693922Y-82369819D02*
X85693922Y-81369819D01*
X87074874Y-82369819D02*
X86741541Y-81893628D01*
X86503446Y-82369819D02*
X86503446Y-81369819D01*
X86503446Y-81369819D02*
X86884398Y-81369819D01*
X86884398Y-81369819D02*
X86979636Y-81417438D01*
X86979636Y-81417438D02*
X87027255Y-81465057D01*
X87027255Y-81465057D02*
X87074874Y-81560295D01*
X87074874Y-81560295D02*
X87074874Y-81703152D01*
X87074874Y-81703152D02*
X87027255Y-81798390D01*
X87027255Y-81798390D02*
X86979636Y-81846009D01*
X86979636Y-81846009D02*
X86884398Y-81893628D01*
X86884398Y-81893628D02*
X86503446Y-81893628D01*
X87360589Y-81369819D02*
X87932017Y-81369819D01*
X87646303Y-82369819D02*
X87646303Y-81369819D01*
D10*
X101803884Y-87241466D02*
X102565789Y-87241466D01*
X102375312Y-87431942D02*
X102565789Y-87241466D01*
X102565789Y-87241466D02*
X102375312Y-87050990D01*
D15*
X79355101Y-100806678D02*
X79355101Y-99306678D01*
X79355101Y-99306678D02*
X79855101Y-100378107D01*
X79855101Y-100378107D02*
X80355101Y-99306678D01*
X80355101Y-99306678D02*
X80355101Y-100806678D01*
X80997959Y-100378107D02*
X81712245Y-100378107D01*
X80855102Y-100806678D02*
X81355102Y-99306678D01*
X81355102Y-99306678D02*
X81855102Y-100806678D01*
X82212244Y-99306678D02*
X83212244Y-100806678D01*
X83212244Y-99306678D02*
X82212244Y-100806678D01*
X84569387Y-100806678D02*
X83712244Y-100806678D01*
X84140815Y-100806678D02*
X84140815Y-99306678D01*
X84140815Y-99306678D02*
X83997958Y-99520964D01*
X83997958Y-99520964D02*
X83855101Y-99663821D01*
X83855101Y-99663821D02*
X83712244Y-99735250D01*
X85069386Y-99306678D02*
X86069386Y-99306678D01*
X86069386Y-99306678D02*
X85426529Y-100806678D01*
X86569386Y-99449535D02*
X86640814Y-99378107D01*
X86640814Y-99378107D02*
X86783672Y-99306678D01*
X86783672Y-99306678D02*
X87140814Y-99306678D01*
X87140814Y-99306678D02*
X87283672Y-99378107D01*
X87283672Y-99378107D02*
X87355100Y-99449535D01*
X87355100Y-99449535D02*
X87426529Y-99592392D01*
X87426529Y-99592392D02*
X87426529Y-99735250D01*
X87426529Y-99735250D02*
X87355100Y-99949535D01*
X87355100Y-99949535D02*
X86497957Y-100806678D01*
X86497957Y-100806678D02*
X87426529Y-100806678D01*
X88712243Y-99306678D02*
X88426528Y-99306678D01*
X88426528Y-99306678D02*
X88283671Y-99378107D01*
X88283671Y-99378107D02*
X88212243Y-99449535D01*
X88212243Y-99449535D02*
X88069385Y-99663821D01*
X88069385Y-99663821D02*
X87997957Y-99949535D01*
X87997957Y-99949535D02*
X87997957Y-100520964D01*
X87997957Y-100520964D02*
X88069385Y-100663821D01*
X88069385Y-100663821D02*
X88140814Y-100735250D01*
X88140814Y-100735250D02*
X88283671Y-100806678D01*
X88283671Y-100806678D02*
X88569385Y-100806678D01*
X88569385Y-100806678D02*
X88712243Y-100735250D01*
X88712243Y-100735250D02*
X88783671Y-100663821D01*
X88783671Y-100663821D02*
X88855100Y-100520964D01*
X88855100Y-100520964D02*
X88855100Y-100163821D01*
X88855100Y-100163821D02*
X88783671Y-100020964D01*
X88783671Y-100020964D02*
X88712243Y-99949535D01*
X88712243Y-99949535D02*
X88569385Y-99878107D01*
X88569385Y-99878107D02*
X88283671Y-99878107D01*
X88283671Y-99878107D02*
X88140814Y-99949535D01*
X88140814Y-99949535D02*
X88069385Y-100020964D01*
X88069385Y-100020964D02*
X87997957Y-100163821D01*
X89426528Y-99449535D02*
X89497956Y-99378107D01*
X89497956Y-99378107D02*
X89640814Y-99306678D01*
X89640814Y-99306678D02*
X89997956Y-99306678D01*
X89997956Y-99306678D02*
X90140814Y-99378107D01*
X90140814Y-99378107D02*
X90212242Y-99449535D01*
X90212242Y-99449535D02*
X90283671Y-99592392D01*
X90283671Y-99592392D02*
X90283671Y-99735250D01*
X90283671Y-99735250D02*
X90212242Y-99949535D01*
X90212242Y-99949535D02*
X89355099Y-100806678D01*
X89355099Y-100806678D02*
X90283671Y-100806678D01*
X92569384Y-100020964D02*
X92783670Y-100092392D01*
X92783670Y-100092392D02*
X92855099Y-100163821D01*
X92855099Y-100163821D02*
X92926527Y-100306678D01*
X92926527Y-100306678D02*
X92926527Y-100520964D01*
X92926527Y-100520964D02*
X92855099Y-100663821D01*
X92855099Y-100663821D02*
X92783670Y-100735250D01*
X92783670Y-100735250D02*
X92640813Y-100806678D01*
X92640813Y-100806678D02*
X92069384Y-100806678D01*
X92069384Y-100806678D02*
X92069384Y-99306678D01*
X92069384Y-99306678D02*
X92569384Y-99306678D01*
X92569384Y-99306678D02*
X92712242Y-99378107D01*
X92712242Y-99378107D02*
X92783670Y-99449535D01*
X92783670Y-99449535D02*
X92855099Y-99592392D01*
X92855099Y-99592392D02*
X92855099Y-99735250D01*
X92855099Y-99735250D02*
X92783670Y-99878107D01*
X92783670Y-99878107D02*
X92712242Y-99949535D01*
X92712242Y-99949535D02*
X92569384Y-100020964D01*
X92569384Y-100020964D02*
X92069384Y-100020964D01*
X93569384Y-100806678D02*
X93569384Y-99806678D01*
X93569384Y-100092392D02*
X93640813Y-99949535D01*
X93640813Y-99949535D02*
X93712242Y-99878107D01*
X93712242Y-99878107D02*
X93855099Y-99806678D01*
X93855099Y-99806678D02*
X93997956Y-99806678D01*
X95069384Y-100735250D02*
X94926527Y-100806678D01*
X94926527Y-100806678D02*
X94640813Y-100806678D01*
X94640813Y-100806678D02*
X94497955Y-100735250D01*
X94497955Y-100735250D02*
X94426527Y-100592392D01*
X94426527Y-100592392D02*
X94426527Y-100020964D01*
X94426527Y-100020964D02*
X94497955Y-99878107D01*
X94497955Y-99878107D02*
X94640813Y-99806678D01*
X94640813Y-99806678D02*
X94926527Y-99806678D01*
X94926527Y-99806678D02*
X95069384Y-99878107D01*
X95069384Y-99878107D02*
X95140813Y-100020964D01*
X95140813Y-100020964D02*
X95140813Y-100163821D01*
X95140813Y-100163821D02*
X94426527Y-100306678D01*
X96426527Y-100806678D02*
X96426527Y-100020964D01*
X96426527Y-100020964D02*
X96355098Y-99878107D01*
X96355098Y-99878107D02*
X96212241Y-99806678D01*
X96212241Y-99806678D02*
X95926527Y-99806678D01*
X95926527Y-99806678D02*
X95783669Y-99878107D01*
X96426527Y-100735250D02*
X96283669Y-100806678D01*
X96283669Y-100806678D02*
X95926527Y-100806678D01*
X95926527Y-100806678D02*
X95783669Y-100735250D01*
X95783669Y-100735250D02*
X95712241Y-100592392D01*
X95712241Y-100592392D02*
X95712241Y-100449535D01*
X95712241Y-100449535D02*
X95783669Y-100306678D01*
X95783669Y-100306678D02*
X95926527Y-100235250D01*
X95926527Y-100235250D02*
X96283669Y-100235250D01*
X96283669Y-100235250D02*
X96426527Y-100163821D01*
X97140812Y-100806678D02*
X97140812Y-99306678D01*
X97283670Y-100235250D02*
X97712241Y-100806678D01*
X97712241Y-99806678D02*
X97140812Y-100378107D01*
X98569384Y-100806678D02*
X98426527Y-100735250D01*
X98426527Y-100735250D02*
X98355098Y-100663821D01*
X98355098Y-100663821D02*
X98283670Y-100520964D01*
X98283670Y-100520964D02*
X98283670Y-100092392D01*
X98283670Y-100092392D02*
X98355098Y-99949535D01*
X98355098Y-99949535D02*
X98426527Y-99878107D01*
X98426527Y-99878107D02*
X98569384Y-99806678D01*
X98569384Y-99806678D02*
X98783670Y-99806678D01*
X98783670Y-99806678D02*
X98926527Y-99878107D01*
X98926527Y-99878107D02*
X98997956Y-99949535D01*
X98997956Y-99949535D02*
X99069384Y-100092392D01*
X99069384Y-100092392D02*
X99069384Y-100520964D01*
X99069384Y-100520964D02*
X98997956Y-100663821D01*
X98997956Y-100663821D02*
X98926527Y-100735250D01*
X98926527Y-100735250D02*
X98783670Y-100806678D01*
X98783670Y-100806678D02*
X98569384Y-100806678D01*
X100355099Y-99806678D02*
X100355099Y-100806678D01*
X99712241Y-99806678D02*
X99712241Y-100592392D01*
X99712241Y-100592392D02*
X99783670Y-100735250D01*
X99783670Y-100735250D02*
X99926527Y-100806678D01*
X99926527Y-100806678D02*
X100140813Y-100806678D01*
X100140813Y-100806678D02*
X100283670Y-100735250D01*
X100283670Y-100735250D02*
X100355099Y-100663821D01*
X100855099Y-99806678D02*
X101426527Y-99806678D01*
X101069384Y-99306678D02*
X101069384Y-100592392D01*
X101069384Y-100592392D02*
X101140813Y-100735250D01*
X101140813Y-100735250D02*
X101283670Y-100806678D01*
X101283670Y-100806678D02*
X101426527Y-100806678D01*
D10*
X77065789Y-92491466D02*
X76303884Y-92491466D01*
X76494360Y-92681942D02*
X76303884Y-92491466D01*
X76303884Y-92491466D02*
X76494360Y-92300990D01*
D11*
X65642857Y-101931009D02*
X65785714Y-101978628D01*
X65785714Y-101978628D02*
X65833333Y-102026247D01*
X65833333Y-102026247D02*
X65880952Y-102121485D01*
X65880952Y-102121485D02*
X65880952Y-102264342D01*
X65880952Y-102264342D02*
X65833333Y-102359580D01*
X65833333Y-102359580D02*
X65785714Y-102407200D01*
X65785714Y-102407200D02*
X65690476Y-102454819D01*
X65690476Y-102454819D02*
X65309524Y-102454819D01*
X65309524Y-102454819D02*
X65309524Y-101454819D01*
X65309524Y-101454819D02*
X65642857Y-101454819D01*
X65642857Y-101454819D02*
X65738095Y-101502438D01*
X65738095Y-101502438D02*
X65785714Y-101550057D01*
X65785714Y-101550057D02*
X65833333Y-101645295D01*
X65833333Y-101645295D02*
X65833333Y-101740533D01*
X65833333Y-101740533D02*
X65785714Y-101835771D01*
X65785714Y-101835771D02*
X65738095Y-101883390D01*
X65738095Y-101883390D02*
X65642857Y-101931009D01*
X65642857Y-101931009D02*
X65309524Y-101931009D01*
X66261905Y-102169104D02*
X66738095Y-102169104D01*
X66166667Y-102454819D02*
X66500000Y-101454819D01*
X66500000Y-101454819D02*
X66833333Y-102454819D01*
X67023810Y-101454819D02*
X67595238Y-101454819D01*
X67309524Y-102454819D02*
X67309524Y-101454819D01*
X67928572Y-102073866D02*
X68690477Y-102073866D01*
X100333333Y-87704819D02*
X100000000Y-87228628D01*
X99761905Y-87704819D02*
X99761905Y-86704819D01*
X99761905Y-86704819D02*
X100142857Y-86704819D01*
X100142857Y-86704819D02*
X100238095Y-86752438D01*
X100238095Y-86752438D02*
X100285714Y-86800057D01*
X100285714Y-86800057D02*
X100333333Y-86895295D01*
X100333333Y-86895295D02*
X100333333Y-87038152D01*
X100333333Y-87038152D02*
X100285714Y-87133390D01*
X100285714Y-87133390D02*
X100238095Y-87181009D01*
X100238095Y-87181009D02*
X100142857Y-87228628D01*
X100142857Y-87228628D02*
X99761905Y-87228628D01*
X101285714Y-87704819D02*
X100714286Y-87704819D01*
X101000000Y-87704819D02*
X101000000Y-86704819D01*
X101000000Y-86704819D02*
X100904762Y-86847676D01*
X100904762Y-86847676D02*
X100809524Y-86942914D01*
X100809524Y-86942914D02*
X100714286Y-86990533D01*
X82073056Y-86727792D02*
X82025437Y-86775412D01*
X82025437Y-86775412D02*
X81882580Y-86823031D01*
X81882580Y-86823031D02*
X81787342Y-86823031D01*
X81787342Y-86823031D02*
X81644485Y-86775412D01*
X81644485Y-86775412D02*
X81549247Y-86680173D01*
X81549247Y-86680173D02*
X81501628Y-86584935D01*
X81501628Y-86584935D02*
X81454009Y-86394459D01*
X81454009Y-86394459D02*
X81454009Y-86251602D01*
X81454009Y-86251602D02*
X81501628Y-86061126D01*
X81501628Y-86061126D02*
X81549247Y-85965888D01*
X81549247Y-85965888D02*
X81644485Y-85870650D01*
X81644485Y-85870650D02*
X81787342Y-85823031D01*
X81787342Y-85823031D02*
X81882580Y-85823031D01*
X81882580Y-85823031D02*
X82025437Y-85870650D01*
X82025437Y-85870650D02*
X82073056Y-85918269D01*
X83025437Y-86823031D02*
X82454009Y-86823031D01*
X82739723Y-86823031D02*
X82739723Y-85823031D01*
X82739723Y-85823031D02*
X82644485Y-85965888D01*
X82644485Y-85965888D02*
X82549247Y-86061126D01*
X82549247Y-86061126D02*
X82454009Y-86108745D01*
X65642857Y-79431009D02*
X65785714Y-79478628D01*
X65785714Y-79478628D02*
X65833333Y-79526247D01*
X65833333Y-79526247D02*
X65880952Y-79621485D01*
X65880952Y-79621485D02*
X65880952Y-79764342D01*
X65880952Y-79764342D02*
X65833333Y-79859580D01*
X65833333Y-79859580D02*
X65785714Y-79907200D01*
X65785714Y-79907200D02*
X65690476Y-79954819D01*
X65690476Y-79954819D02*
X65309524Y-79954819D01*
X65309524Y-79954819D02*
X65309524Y-78954819D01*
X65309524Y-78954819D02*
X65642857Y-78954819D01*
X65642857Y-78954819D02*
X65738095Y-79002438D01*
X65738095Y-79002438D02*
X65785714Y-79050057D01*
X65785714Y-79050057D02*
X65833333Y-79145295D01*
X65833333Y-79145295D02*
X65833333Y-79240533D01*
X65833333Y-79240533D02*
X65785714Y-79335771D01*
X65785714Y-79335771D02*
X65738095Y-79383390D01*
X65738095Y-79383390D02*
X65642857Y-79431009D01*
X65642857Y-79431009D02*
X65309524Y-79431009D01*
X66261905Y-79669104D02*
X66738095Y-79669104D01*
X66166667Y-79954819D02*
X66500000Y-78954819D01*
X66500000Y-78954819D02*
X66833333Y-79954819D01*
X67023810Y-78954819D02*
X67595238Y-78954819D01*
X67309524Y-79954819D02*
X67309524Y-78954819D01*
X67928572Y-79573866D02*
X68690477Y-79573866D01*
X68309524Y-79954819D02*
X68309524Y-79192914D01*
D16*
X63979318Y-91098332D02*
X64886461Y-91098332D01*
X64886461Y-91098332D02*
X65067889Y-91158809D01*
X65067889Y-91158809D02*
X65188842Y-91279761D01*
X65188842Y-91279761D02*
X65249318Y-91461190D01*
X65249318Y-91461190D02*
X65249318Y-91582142D01*
X65249318Y-89828332D02*
X65249318Y-90554047D01*
X65249318Y-90191190D02*
X63979318Y-90191190D01*
X63979318Y-90191190D02*
X64160746Y-90312142D01*
X64160746Y-90312142D02*
X64281699Y-90433094D01*
X64281699Y-90433094D02*
X64342175Y-90554047D01*
D11*
X100395902Y-92155001D02*
X100062569Y-91678810D01*
X99824474Y-92155001D02*
X99824474Y-91155001D01*
X99824474Y-91155001D02*
X100205426Y-91155001D01*
X100205426Y-91155001D02*
X100300664Y-91202620D01*
X100300664Y-91202620D02*
X100348283Y-91250239D01*
X100348283Y-91250239D02*
X100395902Y-91345477D01*
X100395902Y-91345477D02*
X100395902Y-91488334D01*
X100395902Y-91488334D02*
X100348283Y-91583572D01*
X100348283Y-91583572D02*
X100300664Y-91631191D01*
X100300664Y-91631191D02*
X100205426Y-91678810D01*
X100205426Y-91678810D02*
X99824474Y-91678810D01*
X100776855Y-91250239D02*
X100824474Y-91202620D01*
X100824474Y-91202620D02*
X100919712Y-91155001D01*
X100919712Y-91155001D02*
X101157807Y-91155001D01*
X101157807Y-91155001D02*
X101253045Y-91202620D01*
X101253045Y-91202620D02*
X101300664Y-91250239D01*
X101300664Y-91250239D02*
X101348283Y-91345477D01*
X101348283Y-91345477D02*
X101348283Y-91440715D01*
X101348283Y-91440715D02*
X101300664Y-91583572D01*
X101300664Y-91583572D02*
X100729236Y-92155001D01*
X100729236Y-92155001D02*
X101348283Y-92155001D01*
X83064585Y-95143394D02*
X83016966Y-95191014D01*
X83016966Y-95191014D02*
X82874109Y-95238633D01*
X82874109Y-95238633D02*
X82778871Y-95238633D01*
X82778871Y-95238633D02*
X82636014Y-95191014D01*
X82636014Y-95191014D02*
X82540776Y-95095775D01*
X82540776Y-95095775D02*
X82493157Y-95000537D01*
X82493157Y-95000537D02*
X82445538Y-94810061D01*
X82445538Y-94810061D02*
X82445538Y-94667204D01*
X82445538Y-94667204D02*
X82493157Y-94476728D01*
X82493157Y-94476728D02*
X82540776Y-94381490D01*
X82540776Y-94381490D02*
X82636014Y-94286252D01*
X82636014Y-94286252D02*
X82778871Y-94238633D01*
X82778871Y-94238633D02*
X82874109Y-94238633D01*
X82874109Y-94238633D02*
X83016966Y-94286252D01*
X83016966Y-94286252D02*
X83064585Y-94333871D01*
X83445538Y-94333871D02*
X83493157Y-94286252D01*
X83493157Y-94286252D02*
X83588395Y-94238633D01*
X83588395Y-94238633D02*
X83826490Y-94238633D01*
X83826490Y-94238633D02*
X83921728Y-94286252D01*
X83921728Y-94286252D02*
X83969347Y-94333871D01*
X83969347Y-94333871D02*
X84016966Y-94429109D01*
X84016966Y-94429109D02*
X84016966Y-94524347D01*
X84016966Y-94524347D02*
X83969347Y-94667204D01*
X83969347Y-94667204D02*
X83397919Y-95238633D01*
X83397919Y-95238633D02*
X84016966Y-95238633D01*
D14*
%TO.C,IC1*%
X81417000Y-90350000D02*
X81875000Y-89892000D01*
X81417000Y-91608000D02*
X81417000Y-90350000D01*
X81875000Y-89892000D02*
X83133000Y-89892000D01*
X83133000Y-89892000D02*
X83133000Y-91608000D01*
X83133000Y-91608000D02*
X81417000Y-91608000D01*
X81517000Y-89892000D02*
G75*
G02*
X81317000Y-89892000I-100000J0D01*
G01*
X81317000Y-89892000D02*
G75*
G02*
X81517000Y-89892000I100000J0D01*
G01*
D17*
%TO.C,J4*%
X78630000Y-83330000D02*
X78630000Y-82000000D01*
X79960000Y-83330000D02*
X78630000Y-83330000D01*
X81230000Y-80670000D02*
X83830000Y-80670000D01*
X81230000Y-83330000D02*
X81230000Y-80670000D01*
X81230000Y-83330000D02*
X83830000Y-83330000D01*
X83830000Y-83330000D02*
X83830000Y-80670000D01*
%TO.C,R1*%
X97582776Y-86727500D02*
X98092224Y-86727500D01*
X97582776Y-87772500D02*
X98092224Y-87772500D01*
%TO.C,C1*%
X82128733Y-87290000D02*
X82421267Y-87290000D01*
X82128733Y-88310000D02*
X82421267Y-88310000D01*
D10*
%TO.C,J1*%
X61800000Y-88875000D02*
X61800000Y-92475000D01*
X65300000Y-87050000D02*
X66000000Y-87050000D01*
X66000000Y-87050000D02*
X66000000Y-89275000D01*
X66000000Y-92075000D02*
X66000000Y-94300000D01*
X66000000Y-94300000D02*
X65300000Y-94300000D01*
X67500000Y-89975000D02*
X67500000Y-89975000D01*
X67500000Y-90075000D02*
X67500000Y-90075000D01*
X67500000Y-89975000D02*
G75*
G02*
X67500000Y-90075000I0J-50000D01*
G01*
X67500000Y-90075000D02*
G75*
G02*
X67500000Y-89975000I0J50000D01*
G01*
D17*
%TO.C,J5*%
X114730000Y-83055000D02*
X116000000Y-83055000D01*
X114730000Y-84325000D02*
X114730000Y-83055000D01*
X117042929Y-86485000D02*
X117440000Y-86485000D01*
X117042929Y-87245000D02*
X117440000Y-87245000D01*
X117042929Y-89025000D02*
X117440000Y-89025000D01*
X117042929Y-89785000D02*
X117440000Y-89785000D01*
X117042929Y-91565000D02*
X117440000Y-91565000D01*
X117042929Y-92325000D02*
X117440000Y-92325000D01*
X117042929Y-94105000D02*
X117440000Y-94105000D01*
X117042929Y-94865000D02*
X117440000Y-94865000D01*
X117042929Y-96645000D02*
X117440000Y-96645000D01*
X117042929Y-97405000D02*
X117440000Y-97405000D01*
X117110000Y-83945000D02*
X117440000Y-83945000D01*
X117110000Y-84705000D02*
X117440000Y-84705000D01*
X117440000Y-82995000D02*
X117440000Y-98355000D01*
X117440000Y-85595000D02*
X120100000Y-85595000D01*
X117440000Y-88135000D02*
X120100000Y-88135000D01*
X117440000Y-90675000D02*
X120100000Y-90675000D01*
X117440000Y-93215000D02*
X120100000Y-93215000D01*
X117440000Y-95755000D02*
X120100000Y-95755000D01*
X117440000Y-98355000D02*
X120100000Y-98355000D01*
X120100000Y-82995000D02*
X117440000Y-82995000D01*
X120100000Y-83945000D02*
X126100000Y-83945000D01*
X120100000Y-84005000D02*
X126100000Y-84005000D01*
X120100000Y-84125000D02*
X126100000Y-84125000D01*
X120100000Y-84245000D02*
X126100000Y-84245000D01*
X120100000Y-84365000D02*
X126100000Y-84365000D01*
X120100000Y-84485000D02*
X126100000Y-84485000D01*
X120100000Y-84605000D02*
X126100000Y-84605000D01*
X120100000Y-86485000D02*
X126100000Y-86485000D01*
X120100000Y-89025000D02*
X126100000Y-89025000D01*
X120100000Y-91565000D02*
X126100000Y-91565000D01*
X120100000Y-94105000D02*
X126100000Y-94105000D01*
X120100000Y-96645000D02*
X126100000Y-96645000D01*
X120100000Y-98355000D02*
X120100000Y-82995000D01*
X126100000Y-83945000D02*
X126100000Y-84705000D01*
X126100000Y-84705000D02*
X120100000Y-84705000D01*
X126100000Y-86485000D02*
X126100000Y-87245000D01*
X126100000Y-87245000D02*
X120100000Y-87245000D01*
X126100000Y-89025000D02*
X126100000Y-89785000D01*
X126100000Y-89785000D02*
X120100000Y-89785000D01*
X126100000Y-91565000D02*
X126100000Y-92325000D01*
X126100000Y-92325000D02*
X120100000Y-92325000D01*
X126100000Y-94105000D02*
X126100000Y-94865000D01*
X126100000Y-94865000D02*
X120100000Y-94865000D01*
X126100000Y-96645000D02*
X126100000Y-97405000D01*
X126100000Y-97405000D02*
X120100000Y-97405000D01*
%TO.C,R2*%
X98095466Y-91223695D02*
X97586018Y-91223695D01*
X98095466Y-92268695D02*
X97586018Y-92268695D01*
%TO.C,C2*%
X83313380Y-92783801D02*
X83020846Y-92783801D01*
X83313380Y-93803801D02*
X83020846Y-93803801D01*
%TD*%
M02*
